<svg xmlns="http://www.w3.org/2000/svg" viewBox="0 0 387 412" enable-background="new 0 0 387 412" xml:space="preserve"><path fill="#FEC2B8" d="M140.5 177.6c5.9-13.6 3.2-21 1.2-23.1-.5-.5-.4-2.9-.6-3.4-.3-4.2-3.2-6.4-3.8-6.6-2.8-3.6-5.7-6.2-10.7-9.3-2.9-1.8-6.3-4.1-7.7-5.1-1.4-1-3.5-2.2-4.8-2.8-1.2-.6-2.3-1.2-2.3-1.4-30-4.5-59.4 6.7-70.3 12.9 3-1 5.3-.1 2.9 1.2-1.4.7-7.1 7.1-11.4 12.8-3.1 4.1-3.7 5.4-5.3 11-1.8 6.2-2.3 11.5-2.2 14.8.1 0 .1.1 0 .3v-.3 2.1c-2.3 10.8 17.5 25.7 112.1 3.6C125.7 198 86.1 221.7 23.4 207c5.4 6.4 12 12.1 16.8 14.6 35.2 6.5 81.2.5 107.9-26.1 6.7-10.6 9.7-21.3 9.5-33.9-2.4 15-23.6 30.8-17.1 16z"/><path fill="#FF7A8B" d="M119.7 221.8c10.6-5.7 18.2-12.4 25.2-22.1 1-1.4 2-2.9 2.9-4.3C121.2 222 75.2 227.9 40 221.5c26.3 13.7 53 10.3 63 6.9 2.1-.3 11.4-3.7 16.7-6.6zm37.6-62.8c-.1-1.3-.2-2.6-.4-3.9-.7-5.3-2.4-10.7-5-16.2-2.1-4.5-3.3-6.1-3.1-4.1l-.4-.4-.4-.4c-1.6-.6-10.2-6.6-36.2-8 0 .2 1.1.8 2.3 1.4 1.2.6 3.4 1.8 4.8 2.8 1.4 1 4.9 3.3 7.7 5.1 5 3.2 7.9 5.7 10.7 9.3.5.2 3.5 2.4 3.8 6.6.2.5.2 2.9.6 3.4 2.1 2 4.7 9.4-1.2 23.1-6.4 14.9 14.8-1 16.9-16.1-.1-.9-.1-1.8-.1-2.6z"/><path fill="#FF7A8B" d="M25.3 180.6v-2.1c0-3.3.5-8.6 2.2-14.8 1.6-5.6 2.2-6.9 5.3-11 4.3-5.7 9.9-12.1 11.4-12.8 2.4-1.2.1-2.2-2.9-1.2-8.8 3-19.1 10.8-24.4 18.3l-2.4 3.3c-.1.2-.3.4-.4.6-.8 1-1.7 1.8-2.3 3-.2.2-.4.5-.7 1.2l-.7-1.7v4.2l.1 10.8 2.5 8.8c.1 5.6 4.5 13 10.1 19.6 62.7 14.8 102.2-9 114.2-22.7-94.5 22.2-114.3 7.3-112-3.5z"/><defs><filter id="a" filterUnits="userSpaceOnUse" x="8.3" y="105.1" width="152.6" height="227.1"><feColorMatrix values="1 0 0 0 0 0 1 0 0 0 0 0 1 0 0 0 0 0 1 0"/></filter></defs><mask maskUnits="userSpaceOnUse" x="8.3" y="105.1" width="152.6" height="227.1" id="b"><path fill="#FFF" filter="url(#a)" d="M37.9 121.5c12.4-7.3 25.2-11.7 43-14.8 17.1-2.5 54.2-2.2 66.4 19 1.3 2.3 3.2 7.3 3.5 9.1 1.5 2.8 3.4 6.9 4.2 9.3 2 5.4 3.5 14.7 3.3 20.4-.2 7.7-2 15.4-5.1 22.6-.4 1.3-1 2.5-1.7 3.7-6 11.9-15.7 22.4-28.1 30-5.5 3.3-11.2 6.1-15.7 7.6l-2.3.8 2.9 15.8c1.6 8.7 3.3 17 3.7 18.5l.8 2.8 3.4-.2c20.8-1.2 35.7 4.9 41.7 17.1 4.5 9.2 2.4 20.1-5.7 29.5-3.8 4.4-12.5 10.7-18.4 13.2-16.4 7.2-36 7.9-48.9 1.8-3.6-1.7-8.8-5.1-8.9-5.9-.1-.3 1.4.4 3.2 1.6l3.3 2.2-3.1-2.4c-1.7-1.3-3.3-2.2-3.5-2.1-.6.5-3.4-2.9-5-6-1.8-3.5-3-10.7-2.4-14.5 1.9-11.5 12-22.4 26.8-29l5.3-2.4-1.3-5.9c-2-9.1-6-24-7.6-29l-.5-1.6-4.5.4c-18.6 1.6-36.4-2.7-50.6-12.3-2.5-1.7-5.7-4.1-7.1-5.4-1.4-1.3-3.3-3.3-3.6-3.3l-2.8-3.3c-3.5-4-6.6-9-9.1-14.5-2.7-5.9-5.1-20.6-4.4-26.9.5-4 .6-5.5 1.3-12.2 1-11.2 11.9-24.4 27.5-33.7z"/></mask><path mask="url(#b)" d="m148.7 135-.2-.1v.2l.2-.1zm-2.2 8.3-.2-.1.2.1zm-20 24-.1-.2.1.2zM45.1 186v.3-.3zm-19.7-7.1.2-.2v-.1h-.1l-.1.3zm-10-7.9.2-.2-.2.2zM11 158.1h.3-.3zm6.4-17.5-.2-.2.2.2zm62.1-32.8v.3-.3zm65.4 91.8-.2-.2.2.2zm-25.2 22.2-.1-.2.1.2zm-16.7 6.6v-.3.3zm-92.4-50h-.3.3zm-.6-11h.3-.3zm1.9-.5.3-.1-.3.1zm3.7 6 .2-.2-.2.2zm2.5 3.3-.3.1v.1l.1.1.2-.3zm42.3 12.2v-.3.3zm36-5.6.1.3-.1-.3zm45.2-28.3-.2-.2.2.2zm10.3-15.6-.2.1.2-.1zm-40.6 124.5.3-.1-.3.1zm8.6 31.5.2-.2-.2.2zm-.2-2.2-.3.1.3-.1zm-5.9-22.1-.3.1.3-.1zm-.9-3.5v-.3h-.3l.1.3h.2zm4.8-.3v-.3.3zm19 1.5.1-.3-.1.3zm18.8 12.1.2-.2-.2.2zm2.9 17.9.3.1-.3-.1zm-30.8 27.4.1.3-.1-.3zm-11.9 2.7v-.3.3zm-14.1.8v.3-.3zm-30.1-16 .2-.1-.2.1zm17.3-37.4-.1-.2.1.2zm11.8-5.1-.2.2.2-.2zm2.9 14.3h-.3.3zm50.8 23.8-.2-.2.2.2zm-18.1 14.8-.1-.2.1.2zm-30.1 7.3v-.3.3zm-21.7-4.7.1-.2-.1.2zm1.7.4.1-.3-.1.3zm17.7 3.5v-.3.3zm14.8-1.5.1.3-.1-.3zm21.6-7.8.1.2-.1-.2zm13.8-12.2.2.2-.2-.2zM22.4 178.8l-.2.2.2-.2zm2.9 1.8-.1.2.1-.2zm131.6-25.5h-.3.3zm.4 3.9h-.3.3zm0 2.5h-.3.3zm-5.7 29.2.2.1-.2-.1zM40 221.5l.1-.2-.1.2zM12.7 187h.3-.3zm135.7-52c.2 3.8-.9 6.2-2.1 8.2l.5.3c1.3-2.1 2.5-4.5 2.2-8.5h-.6zm-22 32.1c-22.1 15.6-54.5 23-81.2 18.7l-.1.5c26.9 4.3 59.4-3.2 81.6-18.8l-.3-.4zm-81.2 18.7c-4.5-.7-8.8-1.9-12.3-3.2-1.8-.7-3.3-1.3-4.5-2-1.2-.7-2.2-1.3-2.7-1.9l-.4.4c.6.6 1.6 1.3 2.8 2 1.3.7 2.8 1.4 4.6 2 3.6 1.3 7.9 2.5 12.5 3.3v-.6zm-19.7-7.2c-1.5-.5-3.3-1.5-5.1-2.9-1.8-1.4-3.5-3.1-4.8-4.9l-.4.3c1.3 1.8 3.1 3.6 4.9 5 1.8 1.4 3.7 2.5 5.3 3l.1-.5zm-9.9-7.8c-3-4.2-4.4-8.3-4.3-12.7h-.6c0 4.5 1.4 8.7 4.4 13l.5-.3zm-4.3-12.7c.1-6.3 1.7-10.8 6.4-17.4l-.4-.3c-4.7 6.6-6.4 11.3-6.5 17.7h.5zm6.3-17.3c11-15.5 34.9-28.2 61.9-32.7l-.1-.5c-27 4.5-51.1 17.2-62.2 32.9l.4.3zm127.1 58.7c-7 9.7-14.6 16.3-25.1 22.1l.3.5c10.6-5.8 18.3-12.5 25.3-22.2l-.5-.4zm-25.1 22c-2.7 1.4-6.3 3-9.5 4.3-1.6.6-3.1 1.2-4.4 1.6-1.3.4-2.2.7-2.7.7l.1.5c.6-.1 1.6-.3 2.8-.7 1.3-.4 2.8-1 4.4-1.6 3.3-1.3 6.9-2.9 9.6-4.3l-.3-.5zM10.8 178.4c-.5-4.2-.7-8.8-.5-11l-.5-.1c-.2 2.3 0 6.9.5 11.1h.5zm-.5-11 .4-3.9-.5-.1-.4 3.9.5.1zm-.2-3.8 1.5 3.4.5-.2-1.5-3.4-.5.2zm1.5 3.4c.8 1.9 2.5 4.6 3.8 6.1l.4-.4c-1.2-1.4-2.9-4.1-3.7-5.9l-.5.2zm3.8 6.1c.6.7 1.2 1.4 1.7 2 .2.3.4.6.5.8.1.2.2.3.2.4l.5-.2c0-.1-.2-.3-.3-.5-.1-.2-.3-.5-.6-.8-.5-.6-1.1-1.3-1.7-2.1l-.3.4zm45 15.6c9.4.1 26.8-2.6 36.1-5.6l-.2-.5c-9.3 3-26.6 5.7-35.9 5.6v.5zm36.1-5.6c20.4-6.6 36.4-16.6 45.3-28.4l-.4-.3c-8.9 11.7-24.7 21.6-45 28.2l.1.5zm45.4-28.4c2.4-3.1 4.4-6.9 5.7-10.5 1.3-3.6 1.9-6.9 1.6-9.3l-.5.1c.4 2.2-.2 5.5-1.5 9s-3.3 7.2-5.6 10.3l.3.4zm7.2-19.8v-.2l-.5.1v.3l.5-.2zm0-.2v-.6l-.1.1h-.1l.3.3c.5.7 1.3 2.2 2.4 4.4l.5-.2c-1.1-2.2-1.9-3.8-2.5-4.5-.1-.2-.3-.3-.4-.4-.1-.1-.1-.1-.2-.1h-.3c-.1.1-.2.1-.2.2s0 .2-.1.2v.6h.7zM107 242.2c1.1 7 3 16.5 4 21.2l.5-.1c-1.1-4.7-2.9-14.3-4-21.2l-.5.1zm4 21.3c1.5 6.7 3.5 14.5 5.2 20.6.8 3.1 1.6 5.7 2.2 7.7.3 1 .6 1.8.8 2.3.1.3.2.5.3.7 0 .1.1.2.1.2 0 .1.1.1.2.2l.3-.5s-.1-.1-.1-.2c-.1-.1-.2-.4-.3-.6-.2-.5-.5-1.3-.8-2.3-.6-1.9-1.4-4.6-2.2-7.6-1.7-6.1-3.6-13.9-5.2-20.6l-.5.1zm8.7 31.6c.1 0 .2.1.3.1.1 0 .2 0 .3-.1.1-.1.1-.2.1-.3v-.3c0-.4-.2-1.1-.4-2l-.5.2c.3.9.4 1.5.4 1.8v.2s.1-.1.1 0l-.3.4zm.3-2.5c-.7-2.4-3.8-13.9-6-22.1l-.5.1c2.2 8.2 5.2 19.7 6 22.1l.5-.1zm-5.9-22.1-.9-3.4-.5.1.9 3.4.5-.1zm-1.2-3.1 4.8-.4v-.5l-4.8.4v.5zm4.8-.4c5.9-.5 13.8.2 18.9 1.5l.1-.5c-5.1-1.4-13.2-2-19.1-1.6l.1.6zm18.9 1.6c8.5 2.3 14.7 6.3 18.7 12l.5-.3c-4.1-5.9-10.4-9.9-19-12.2l-.2.5zm18.7 12c1 1.5 1.6 2.4 2 3.5.4 1.2.7 2.6 1.1 5l.5-.1c-.4-2.5-.7-3.9-1.1-5.1-.4-1.2-1-2.2-2.1-3.7l-.4.4zm3.1 8.5c.4 2.5.6 3.9.6 5.1 0 1.2-.3 2.2-.8 4l.5.2c.5-1.8.8-2.8.9-4.1 0-1.3-.2-2.7-.6-5.2h-.6zm-.3 9.2c-3.4 11.3-15.1 21.7-30.7 27.2l.2.5c15.6-5.5 27.5-16.1 31-27.6l-.5-.1zm-30.6 27.2c-2.2.8-7.4 1.9-11.8 2.6l.1.5c4.4-.7 9.7-1.9 11.9-2.7l-.2-.4zm-11.8 2.6c-6.6 1.1-8.8 1.2-14 .8v.5c5.3.4 7.5.3 14.2-.8l-.2-.5zm-14 .8c-14.4-1.2-25.2-6.9-29.9-15.8l-.5.3c4.8 9.2 15.8 14.9 30.4 16.1v-.6zm-30-15.8c-6.2-11.8.8-27.3 17.2-37l-.3-.5c-16.4 9.8-23.8 25.6-17.4 37.8l.5-.3zM88.9 276c2.3-1.3 5-2.7 7.4-3.7 1.2-.5 2.2-.9 3-1.1.4-.1.7-.2.9-.2h.3c.1 0 .1 0 0 0l.3-.4c-.1-.1-.2-.1-.3-.1h-.4c-.3 0-.6.1-1 .3-.8.3-1.8.7-3 1.2-2.3 1-5.1 2.4-7.4 3.8l.2.2zm11.6-5.1c-.1 0-.1-.1 0 0-.1-.1-.1 0 0 0v.2c.1.2.1.5.2.9.2.7.4 1.8.7 3.1.5 2.6 1.2 6.1 1.9 10l.5-.1c-.7-3.9-1.3-7.4-1.9-10-.3-1.3-.5-2.4-.7-3.1-.1-.4-.2-.7-.2-.9 0-.1-.1-.2-.1-.3v-.1s0-.1-.1-.1l-.3.4zm2.8 14.2c.7 4.1 1.4 7.6 1.9 10.1.3 1.2.5 2.2.7 2.9.1.3.2.6.2.8 0 .1.1.2.1.2s0 .1.1.1c0 0 .1.1.3.1l-.1-.5c.1 0 .2 0 .2.1 0 0 0-.1-.1-.1-.1-.2-.1-.4-.2-.7-.2-.7-.4-1.6-.7-2.8-.5-2.5-1.2-6-1.9-10.1l-.5-.1zm3.3 14.2c.2 0 .3-.2.3-.3 0-.1.1-.3.1-.4v-1.4c-.1-1.1-.3-2.8-.6-4.8-.6-4-1.7-9.6-3-15.7-2.5-12.2-5.9-26.8-8.7-36.3l-.5.2c2.7 9.4 6.1 24 8.7 36.2 1.3 6.1 2.3 11.6 3 15.7.3 2 .5 3.6.6 4.8 0 .6.1 1 0 1.3v.3c0 .1 0 0 .1 0v.4zm-1.7-69.7 2.1 12.6.5-.1-2.1-12.6-.5.1zm49.2 79c-3.5 5.1-10.8 11-18 14.8l.3.5c7.3-3.8 14.6-9.8 18.2-15l-.5-.3zm-18 14.8c-3.9 2-9.3 3.9-14.8 5.2-5.5 1.3-11 2.1-15.2 2v.6c4.3.1 9.8-.7 15.3-2s10.9-3.2 14.9-5.2l-.2-.6zm-30 7.2c-4-.1-8.4-.6-12.3-1.4-3.9-.8-7.3-1.9-9.3-3.2l-.3.5c2.1 1.3 5.6 2.4 9.5 3.2 3.9.8 8.3 1.4 12.4 1.5v-.6zM84.5 326c-.1-.1-.2-.1-.3-.2l-.1-.1v.3c0 .1-.1.1-.1.1h-.1c.3.1 1 .3 2.1.7l.2-.5c-1.1-.4-1.9-.7-2.2-.8h-.3s-.1.1-.1.2v.2c0 .1.1.1.1.2l.2.2c.1.1.2.1.4.2l.2-.5zm1.5.8c5.5 2.1 11.4 3.3 17.8 3.6v-.5c-6.4-.3-12.1-1.4-17.6-3.6l-.2.5zm17.8 3.6c5.1.2 7.1 0 14.9-1.5l-.1-.5c-7.7 1.5-9.7 1.7-14.7 1.5l-.1.5zm14.8-1.5c9.8-1.9 14.3-3.5 21.7-7.9l-.3-.5c-7.4 4.3-11.8 5.9-21.5 7.8l.1.6zm21.7-7.9c2.2-1.3 5.1-3.5 7.8-5.9 2.6-2.3 5-4.8 6.1-6.4l-.5-.3c-1.1 1.6-3.4 4-6.1 6.3-2.6 2.3-5.5 4.5-7.7 5.8l.4.5zm13.9-12.3c.4-.5.7-1 1-1.4.1-.2.3-.3.4-.4l.1-.1-.1-.5h-.1s-.1 0-.1.1c0 0-.1.1-.2.1-.1.1-.2.3-.4.4-.3.4-.7.9-1 1.4l.4.4zm1.4-1.8h-.1c-.1 0-.1-.1-.1-.1v-.1c0 .1-.1.2-.2.4-.2.4-.6.9-1 1.5l.5.3c.4-.6.8-1.2 1-1.6.1-.2.2-.4.3-.5 0-.1.1-.1.1-.2v-.2c0-.1-.1-.1-.1-.1h-.1l-.3.6zM79.5 108.1c10.5-1.8 26.8-2 40.9 1.7 14.1 3.7 26.1 11.2 28.1 25l.5-.1c-2.1-14.1-14.3-21.7-28.5-25.4-14.2-3.7-30.5-3.4-41.1-1.7l.1.5zm69 26.6v.2l.5-.1v-.3l-.5.2zM22.2 179c.9.6 1.9 1.2 3 1.8l.3-.5c-1-.6-2-1.2-2.9-1.8l-.4.5zm3 1.8c8.9 5 20.9 7.7 35.2 7.9v-.6c-14.3-.2-26.2-2.9-35-7.8l-.2.5zM151.7 139c2.6 5.5 4.3 10.9 5 16.2l.5-.1c-.7-5.3-2.4-10.8-5-16.3l-.5.2zm4.9 16.1c.2 1.3.3 2.6.3 3.9h.6c-.1-1.3-.2-2.6-.4-3.9h-.5zm-8.5 40.4c6.7-10.6 9.7-21.4 9.5-34h-.5c.2 12.5-2.8 23.2-9.5 33.7l.5.3zm8.6-40.3c.6 2 .7 4.1.4 6.3l.5.1c.3-2.2.2-4.4-.4-6.5l-.5.1zm-8.7 40.4c1.5-1.5 2.8-3 3.8-4.7l-.5-.3c-1 1.6-2.3 3.2-3.7 4.6l.4.4zm3.9-4.8c.6-1.2 1.2-2.4 1.7-3.7l-.5-.2c-.5 1.2-1.1 2.4-1.7 3.7l.5.2zM157 159c0 .8.1 1.7.1 2.5h.5c0-.8 0-1.7-.1-2.5h-.5zm-9.4 36.2c-.9 1.4-1.9 2.8-2.9 4.3l.4.3c1-1.4 2-2.9 2.9-4.3l-.4-.3zm-44.7 32.9c-10 3.4-36.6 6.7-62.8-6.9l-.3.5c26.4 13.7 53.1 10.4 63.2 6.9l-.1-.5zm-62.8-6.9c-4.8-2.5-11.6-8.3-17.2-14.9-2.8-3.3-5.3-6.8-7.1-10.1-1.8-3.3-2.9-6.5-2.9-9.2h-.6c0 2.8 1.2 6.1 3 9.5 1.8 3.4 4.3 6.9 7.1 10.2 5.6 6.6 12.4 12.5 17.3 15l.4-.5zm-27.2-34.3-2.1-8.6-.5.1 2.1 8.6.5-.1zm-2.1-8.5-.2-15H10l.2 15h.6zm-.1-14.9c0-1.1.2-3.8.6-5.3l-.5-.2c-.5 1.6-.6 4.3-.6 5.4l.5.1zm116 4c2.6-1.6 6.5-4.9 10.3-9.1 3.8-4.2 7.5-9.4 9.8-15l-.5-.2c-2.3 5.5-5.9 10.7-9.7 14.9-3.8 4.2-7.6 7.4-10.1 9l.2.4zm22.2-32.4h-.2c-.1 0-.1-.1-.1-.1l.5-.1v-.1l-.2-.2c-.1-.1-.3 0-.3 0-.1 0-.1.1-.2.2l.5.3zm-131 41.3c.5.5 1.4 1 2.2 1.4.8.5 1.6.9 2.1 1.2l.3-.5c-.5-.3-1.3-.8-2.1-1.2-.8-.5-1.7-1-2.1-1.4l-.4.5zM81 106.7l-.1-.5.1.5zm-43.1 14.8.3.5-.3-.5zM10.3 155l.5.1-.5-.1zM9 167.2l.5.1-.5-.1zm4.4 26.9-.5.2.5-.2zm9.1 14.5-.4.4.4-.4zm2.8 3.3-.4.4.2.2.3-.1-.1-.5zm3.6 3.3.4-.4-.4.4zm7.1 5.4-.3.5.3-.5zm50.6 12.3v.5-.5zm4.6-.4.5-.2-.1-.4h-.4v.6zm.5 1.7.5-.2-.5.2zm7.6 28.9.5-.1-.5.1zm1.3 6 .2.5.4-.2-.1-.4-.5.1zm-5.3 2.3-.2-.5.2.5zm-26.8 29.1-.5-.1.5.1zM71 315l-.5.3.5-.3zm5 6 .4.4-.4-.4zm3.5 2.1-.3.4.3-.4zm3.1 2.4-.3.5.7-1-.4.5zm-3.2-2.3-.3.5.3-.5zm5.7 4.3-.2.5.2-.5zm48.9-1.8.2.5-.2-.5zm18.3-13.2-.4-.4.4.4zM158 283l.5-.2-.5.2zm-41.7-17.1v-.6.6zm-3.3.2-.5.2.1.4h.4v-.6zm-.8-2.8-.5.2.5-.2zm-3.8-18.5-.5.1.5-.1zm-2.9-15.7-.2-.5-.5.2.1.5.6-.2zm2.3-.8.2.5-.2-.5zm15.7-7.6-.3-.5.3.5zm34.9-56.3h-.5.5zm-3.3-20.4.5-.2-.5.2zm-4.3-9.2-.5.1v.2l.5-.3zm-3.5-9.1.5-.3-.5.3zm6 61.3-.5-.2.5.2zm-1.7 3.7-.5-.3.5.3zm-70.7-84.6c-17.9 3.1-30.8 7.5-43.2 14.9l.6.9c12.3-7.3 25-11.7 42.8-14.8l-.2-1zM37.7 121c-7.9 4.7-14.6 10.3-19.4 16.2-4.9 5.9-7.9 12-8.5 17.7l1.1.1c.5-5.4 3.5-11.3 8.2-17.1 4.8-5.8 11.4-11.4 19.1-16l-.5-.9zm-28 33.9c-.7 6.7-.8 8.2-1.3 12.2l1.1.1c.5-4 .6-5.5 1.3-12.2l-1.1-.1zm-1.2 12.2c-.4 3.2.1 8.5.9 13.7.8 5.2 2.1 10.4 3.5 13.4l1-.5c-1.3-2.9-2.6-8-3.4-13.2-.8-5.2-1.2-10.4-.9-13.4H8.5zm4.4 27.2c2.5 5.5 5.7 10.6 9.2 14.7l.8-.7c-3.4-4-6.5-9-9-14.4l-1 .4zm9.2 14.7 2.8 3.3.8-.7-2.8-3.3-.8.7zm3.3 3.5h-.3c.1 0 .1.1.3.2.2.2.5.5.9.8.7.6 1.5 1.5 2.2 2.2l.8-.8-2.2-2.2c-.3-.3-.7-.6-.9-.9-.1-.1-.3-.2-.4-.3-.1 0-.1-.1-.2-.1s-.2-.1-.4-.1l.2 1.2zm3.2 3.1c1.4 1.3 4.6 3.8 7.1 5.5l.6-.9c-2.5-1.7-5.6-4.1-7-5.4l-.7.8zm7.1 5.5c14.4 9.6 32.3 13.9 51 12.4l-.1-1.1c-18.5 1.6-36.1-2.7-50.3-12.2l-.6.9zm51 12.4 4.5-.4-.1-1.1-4.5.4.1 1.1zm3.9-.8.5 1.6 1-.3-.5-1.6-1 .3zm.6 1.7c1.6 4.9 5.5 19.8 7.6 28.9l1.1-.2c-2.1-9.1-6-24-7.6-29l-1.1.3zm7.6 28.9 1.3 5.9 1.1-.2-1.3-5.9-1.1.2zm1.6 5.3-5.3 2.4.4 1 5.3-2.4-.4-1zm-5.3 2.3c-14.9 6.6-25.2 17.7-27.1 29.4l1.1.2c1.8-11.2 11.8-22.1 26.5-28.6l-.5-1zM68 300.4c-.3 2-.2 4.8.3 7.6.5 2.7 1.2 5.5 2.2 7.3l1-.5c-.9-1.7-1.6-4.3-2.1-7-.4-2.7-.6-5.4-.3-7.2l-1.1-.2zm2.5 14.9c.8 1.6 2 3.2 3 4.5.5.6 1 1.1 1.4 1.4.2.2.4.3.6.4.2.1.6.2.9-.1l-.7-.8c.2-.1.3-.1.2-.1-.1 0-.2-.1-.3-.2-.3-.3-.8-.7-1.2-1.3-1-1.2-2.1-2.7-2.8-4.3l-1.1.5zm5.9 6.2c-.1.1-.2.1-.2.1h-.1.1c.2.1.4.2.7.4.6.4 1.4.9 2.3 1.6l.7-.9c-.9-.7-1.7-1.2-2.4-1.6-.3-.2-.6-.3-.9-.4-.1 0-.2-.1-.4-.1-.1 0-.4 0-.6.1l.8.8zm2.8 2 3.1 2.4.7-.9-3.1-2.4-.7.9zM83 325l-3.3-2.2-.6.9 3.3 2.2.6-.9zm-3.3-2.2c-.9-.6-1.7-1.1-2.4-1.4-.3-.2-.6-.3-.8-.3-.1 0-.3-.1-.4 0-.1 0-.3.1-.4.3-.1.2-.1.3-.1.4l1.1-.2c0 .1 0 .2-.1.3-.1.1-.2.2-.3.2h-.1c.1 0 .3.1.6.3.6.3 1.3.8 2.2 1.4l.7-1zm-4.1-1.1c0 .2.1.3.2.4.1.1.2.2.2.3l.7.7c.6.5 1.4 1 2.3 1.6 1.8 1.2 4 2.5 5.8 3.3l.5-1c-1.8-.8-3.9-2.1-5.7-3.2-.9-.6-1.6-1.1-2.2-1.6-.3-.2-.5-.4-.6-.6-.1-.1-.1-.1-.1-.2l-1.1.3zm9.2 6.3c13.1 6.2 32.8 5.4 49.4-1.8l-.4-1c-16.3 7.1-35.7 7.8-48.5 1.8l-.5 1zm49.4-1.8c3-1.3 6.6-3.5 10-6 3.4-2.4 6.6-5.1 8.5-7.4l-.8-.7c-1.9 2.2-5 4.8-8.3 7.2-3.4 2.4-7 4.6-9.8 5.9l.4 1zm18.5-13.4c8.2-9.5 10.4-20.6 5.8-30.1l-1 .5c4.4 9 2.4 19.6-5.6 28.9l.8.7zm5.8-30c-6.1-12.5-21.3-18.6-42.2-17.4l.1 1.1c20.7-1.2 35.3 4.9 41.2 16.8l.9-.5zm-42.2-17.5-3.4.2.1 1.1 3.4-.2-.1-1.1zm-2.8.6-.8-2.8-1.1.3.8 2.8 1.1-.3zm-.8-2.7c-.4-1.5-2.1-9.8-3.7-18.5l-1.1.2c1.6 8.7 3.3 17 3.8 18.6l1-.3zm-3.7-18.5-3-15.7-1.1.2 2.9 15.8 1.2-.3zm-3.3-15.1 2.3-.8-.3-1-2.3.8.3 1zm2.3-.8c4.5-1.5 10.3-4.3 15.8-7.6l-.6-.9c-5.5 3.3-11.1 6.1-15.6 7.5l.4 1zm50.9-64.4c.1-5.8-1.4-15.1-3.4-20.6l-1 .4c1.9 5.3 3.4 14.5 3.3 20.2h1.1zm-3.3-20.6c-.9-2.3-2.8-6.5-4.3-9.3l-1 .5c1.5 2.8 3.4 6.9 4.2 9.2l1.1-.4zm-4.2-9.1c-.2-.9-.7-2.7-1.4-4.4-.7-1.8-1.5-3.6-2.2-4.8l-1 .5c.7 1.1 1.4 2.9 2.1 4.7.7 1.8 1.2 3.4 1.3 4.2l1.2-.2zM81 107.2c8.5-1.2 22-1.8 34.9.6 12.9 2.4 25 7.7 31 18.1l1-.5c-6.2-10.8-18.7-16.2-31.7-18.6-13-2.4-26.6-1.9-35.2-.6v1zm72.8 80.1c3.1-7.3 4.9-15 5.1-22.8h-1.1c-.2 7.7-1.9 15.3-5 22.4l1 .4zm-30 33.9c12.5-7.6 22.3-18.2 28.3-30.2l-1-.5c-5.9 11.8-15.6 22.3-27.9 29.8l.6.9zm28.3-30.2c.7-1.2 1.4-2.5 1.8-3.8l-1-.3c-.4 1.2-.9 2.4-1.7 3.5l.9.6z"/><path fill="none" stroke="#000" stroke-width=".507" d="M102.9 147.2c.3 1.4-.6 2.9-2.3 4.3-1.7 1.4-4.3 2.5-7.3 3.1-3 .6-5.8.5-7.9 0-2.1-.6-3.5-1.7-3.8-3-.3-1.4.6-2.9 2.3-4.3 1.7-1.4 4.3-2.5 7.3-3.1 3-.6 5.8-.5 7.9 0 2.2.6 3.6 1.7 3.8 3zm-2.6 13.5c.2 1-.4 2.2-1.8 3.3-1.4 1.1-3.4 2-5.7 2.4-2.3.5-4.6.4-6.2 0-1.7-.5-2.7-1.3-3-2.3-.2-1 .4-2.2 1.8-3.3 1.4-1.1 3.4-2 5.7-2.4 2.3-.5 4.6-.4 6.2 0 1.7.4 2.8 1.2 3 2.3zm15.4-8.8c.1.7-.3 1.5-1.2 2.2-.9.7-2.3 1.3-3.9 1.7-1.6.3-3.1.3-4.3 0-1.2-.3-1.8-.9-2-1.6-.1-.7.3-1.5 1.2-2.2.9-.7 2.3-1.3 3.9-1.7 1.6-.3 3.1-.3 4.3 0 1.1.4 1.8.9 2 1.6z"/><path fill="#FEC2B8" d="M337.7 224.4c0 .1 0 .2-.1.2-1.2 4.5-7.8 11.1-14.7 14.8-.2-.7.9-2.8.8-3.4 1.5-3.9-.3-7.1-.7-7.5-1-4.5-2.6-8-5.8-13-1.8-2.9-4-6.4-4.9-7.9-.9-1.5-2.3-3.5-3.2-4.5-.9-1-1.6-2-1.5-2.2-32-13.6-62-9.7-74.5-8.6-9.2-.9-21.8 1.8-29.8 6.4l-3.5 2c-.2.1-.4.3-.7.4l-1.2.6c-.2.1-.3.2-.5.2V199c.1-.3.1-.4 0-.3v-1.8l-1.7 3.8-4.2 9.4c-.5-.4-.7-.3-.2.5 13.6 45.9 77.1 58.2 112.8 58.2-5.3 15.9-29.6 29.6-61.4 23.1 4.8 1.5 8.8 2.4 11.7 2.7 2 .7 11.9 1.4 18 1 12-.8 21.7-3.7 32.2-9.6 1.5-.9 3-1.8 4.4-2.7 10.5-6.8 17.7-15.3 22.8-26.8.3-.8.7-1.5 1-2.3.5-1.2.9-2.4 1.3-3.7 1.5-5.1 2.3-10.7 2.2-16.9 0-5 2-11.1 1.4-9.2z"/><path fill="#FF7A8B" d="M307.7 200.9c-.1.2.6 1.2 1.5 2.2.9 1 2.3 3.1 3.2 4.5.9 1.5 3.1 5 4.9 7.9 3.2 5 4.8 8.5 5.8 13 .4.4 2.2 3.6.7 7.6 0 .5-1 2.7-.8 3.4 6.9-3.7 13.5-10.3 14.7-14.8 0-.1 0-.2.1-.2l-.2-.6c-.1-.3-.2-.5-.2-.6-1.3-1.2-6.7-10.2-29.7-22.4zm-116.3 9.7-1.4 9c-2.3 5.2-1.4 13.7.9 22.1 2.3 8.1 5.9 16 9.2 20.3 13.1 16.9 30.2 25.9 42.6 29.9 31.8 6.5 56.2-7.2 61.4-23.1-35.6-.1-99.1-12.4-112.7-58.2z"/><defs><filter id="c" filterUnits="userSpaceOnUse" x="186.9" y="169.1" width="151.4" height="227.3"><feColorMatrix values="1 0 0 0 0 0 1 0 0 0 0 0 1 0 0 0 0 0 1 0"/></filter></defs><mask maskUnits="userSpaceOnUse" x="186.9" y="169.1" width="151.4" height="227.3" id="d"><path fill="#FFF" filter="url(#c)" d="M240.1 170.2c14.3-1.5 27.8-.2 45.3 4.5 16.6 4.8 50.2 20.6 52.4 45 .2 2.7-.2 8-.6 9.7.2 3.1.2 7.7 0 10.2-.5 5.7-3 14.8-5.5 19.9-3.4 7-8.2 13.2-14.1 18.5-.9 1-1.9 1.8-3.1 2.6-10.4 8.3-23.6 13.8-38.1 15.5-6.4.7-12.7.9-17.4.4l-2.4-.3-3.9 15.6c-2.1 8.6-4.1 16.8-4.3 18.4l-.4 2.8 3.2 1.2c19.4 7.6 30.4 19.4 30.8 33 .3 10.3-6.2 19.3-17.5 24.4-5.3 2.4-15.8 4.5-22.2 4.3-17.9-.3-36-7.8-45.2-18.8-2.5-3-5.8-8.3-5.6-9.1.1-.3 1.1 1 2.2 2.8l2.1 3.4-1.8-3.5c-1-1.9-2.1-3.4-2.3-3.3-.7.2-1.9-4.1-2.1-7.6-.2-4 1.7-11 3.9-14.2 6.5-9.6 20.3-15.4 36.5-15.2l5.8.1 1.3-6c1.9-9.1 4.6-24.3 5.2-29.5l.2-1.7-4.3-1.5c-17.6-6.4-31.9-17.7-40.9-32.3-1.6-2.6-3.4-6.1-4.2-7.9-.7-1.8-1.6-4.4-1.9-4.5l-1.2-4.2c-1.5-5.1-2.2-11-2.2-17 0-6.5 4-20.8 7.3-26.3 2.1-3.5 2.8-4.7 6.2-10.6 5.2-9.4 20.6-16.9 38.8-18.8z"/></mask><path mask="url(#d)" d="m335 228.7-.2-.2h-.1v.1l.3.1zm-5.4 6.7-.1-.2.1.2zm-28.2 13.4v-.3.3zm-81.8-16.9-.2.2.2-.2zm-14.9-14.8.3-.1v-.1h-.1l-.2.2zm-5.8-11.3.3-.1-.3.1zm1.4-13.5.2.1-.2-.1zm13.1-13.2-.1-.2.1.2zm70.1-3.9-.1.3.1-.3zm21.2 110.7-.1-.2.1.2zm-32.2 9.6v-.3.3zm-18-1 .1-.3-.1.3zm-63.1-83.9-.3-.1.3.1zm4.2-10.3.2.1-.2-.1zm1.8.3h.3-.3zm.9 7 .3-.1-.3.1zm.9 4h-.3v.2l.3-.2zm33.3 28.8.1-.2-.1.2zm35.1 10v.3-.3zm52.9-6.9-.1-.2.1.2zm15.9-9.9h-.3.3zm-88.9 96.2.3.1-.3-.1zm-5.4 32.2.2-.1-.2.1zm.8-2.1h-.3.3zm3.8-22.5h-.3.3zm.6-3.5.1-.3-.3-.1-.1.3.3.1zm4.6 1.6.1-.3-.1.3zm16.6 9.4.2-.2-.2.2zm12 18.8h.3-.3zm-4.8 17.5.2.2-.2-.2zm-39.5 12.1v.3-.3zm-11.8-2.6.1-.3-.1.3zm-13.2-5.2-.1.2.1-.2zm-20.7-27.1h.3-.3zm31.3-26.7v-.3.3zm12.9.3-.2.1.2-.1zm-3.3 14.2-.3-.1.3.1zm36.2 42.8-.1-.2.1.2zm-22.7 6v-.3.3zm-30.3-6 .1-.2-.1.2zm-17.9-13.3.2-.2-.2.2zm1.5 1 .2-.2-.2.2zm14.6 10.6.1-.2-.1.2zm14 4.8-.1.3.1-.3zm23 1.9v.3-.3zm17.6-5.3.1.2-.1-.2zM202 215.8l-.2.1.2-.1zm1.9 2.9-.2.2.2-.2zm130.2 31.8-.3-.1.3.1zm-1.3 3.6-.3-.1.3.1zm-.9 2.3-.3-.1.3.1zm-17.5 24.2.2.2-.2-.2zm-114.2-18.7.2-.2-.2.2zm-10.4-42.7.3.1-.3-.1zm145 9.4c-1.4 3.6-3.4 5.3-5.4 6.5l.3.5c2.1-1.3 4.1-3.1 5.6-6.8l-.5-.2zm-33.4 20c-26.6 4.9-59.1-1.8-81.6-16.9l-.3.5c22.6 15.2 55.3 21.9 82 17l-.1-.6zm-81.6-16.9c-3.8-2.5-7.2-5.4-9.9-8.1-1.3-1.3-2.4-2.6-3.3-3.7-.9-1.1-1.4-2.1-1.7-2.8l-.5.2c.3.8.9 1.8 1.8 3 .9 1.1 2 2.4 3.3 3.8 2.7 2.7 6.2 5.6 10 8.2l.3-.6zm-14.9-14.8c-1.1-1-2.4-2.8-3.4-4.8s-1.9-4.3-2.3-6.4l-.5.1c.4 2.2 1.3 4.5 2.4 6.6 1.1 2 2.3 3.8 3.5 4.9l.3-.4zm-5.7-11.2c-1-5.1-.5-9.3 1.4-13.3l-.5-.2c-1.9 4.1-2.4 8.5-1.4 13.7l.5-.2zm1.3-13.3c2.7-5.7 6.1-9.1 13-13.1l-.3-.5c-7 4-10.5 7.6-13.3 13.4l.6.2zm13.1-13.1c16.5-9.5 43.5-11 69.9-3.9l.1-.5c-26.5-7.2-53.6-5.7-70.3 3.9l.3.5zm90.9 106.4c-10.4 5.9-20.1 8.8-32.1 9.5v.5c12.1-.8 21.8-3.7 32.3-9.6l-.2-.4zm-32 9.5c-3 .2-7 .1-10.4-.1-1.7-.1-3.3-.2-4.6-.4-1.3-.2-2.3-.3-2.8-.5l-.2.5c.5.2 1.6.4 2.9.5 1.3.2 2.9.3 4.7.4 3.5.2 7.5.3 10.5.1l-.1-.5zm-80.8-84.6c1.3-4.1 3-8.3 4.1-10.2l-.5-.3c-1.2 2-2.9 6.3-4.2 10.3l.6.2zm4.1-10.2 1.9-3.4-.5-.3-1.9 3.4.5.3zm1.4-3.5-.1 3.7h.6l.1-3.7h-.6zm-.1 3.7c0 2.1.4 5.3.9 7.1l.5-.2c-.5-1.8-.9-4.9-.9-6.9h-.5zm1 7.1c.3.9.5 1.8.7 2.5.1.4.1.7.2.9v.5l.5.1v-.6c0-.3-.1-.6-.2-1-.2-.7-.4-1.6-.7-2.6l-.5.2zm34.3 33c8.5 4 25.4 8.8 35.2 10l.1-.5c-9.7-1.1-26.6-5.9-35-9.9l-.3.4zm35.2 10c21.3 2.5 40 .1 53-6.9l-.3-.5c-12.9 6.9-31.5 9.3-52.7 6.8v.6zm53-6.9c3.5-1.9 6.9-4.5 9.6-7.1 2.7-2.7 4.7-5.5 5.3-7.8l-.5-.1c-.6 2.2-2.5 4.9-5.2 7.5-2.6 2.6-6 5.2-9.4 7l.2.5zm14.9-14.9c0-.1 0-.2.1-.2l-.5-.2c0 .1 0 .2-.1.3l.5.1zm.1-.3c.1-.2.1-.4.2-.5v-.1h-.2c0 .1.1.2.1.4.2.8.3 2.6.3 5h.5c0-2.5-.2-4.2-.3-5.2 0-.2-.1-.4-.2-.6 0-.1-.1-.1-.1-.2-.1-.1-.2-.1-.3-.1-.1 0-.2.1-.3.1l-.2.2c-.1.1-.2.3-.2.6l.7.4zm-83.2 80.2c-1.9 6.8-4.2 16.2-5.2 21l.5.1c1-4.7 3.3-14.2 5.2-21l-.5-.1zm-5.2 20.9c-1.4 6.7-2.8 14.6-3.9 20.9-.5 3.1-.9 5.9-1.2 7.9-.1 1-.2 1.8-.3 2.4v.9c0 .1 0 .1.1.2l.5-.3v-.9c0-.6.1-1.4.3-2.4.3-2 .7-4.7 1.2-7.9 1-6.3 2.5-14.1 3.9-20.9l-.6.1zm-5.3 32.4c0 .1.1.2.2.2.1.1.2.1.4 0 .1 0 .2-.1.2-.2s.1-.2.1-.3c.1-.4.3-1 .4-2l-.5-.1c-.1.9-.3 1.5-.4 1.9 0 .1-.1.1-.1.1h.2l-.5.4zm1.3-2.1c.4-2.5 2.3-14.2 3.8-22.6l-.5-.1c-1.5 8.3-3.4 20.1-3.8 22.6l.5.1zm3.8-22.6.6-3.5-.5-.1-.6 3.5.5.1zm.3-3.3 4.5 1.6.2-.5-4.5-1.6-.2.5zm4.5 1.7c5.6 2 12.5 5.9 16.5 9.3l.4-.4c-4.1-3.4-11.1-7.3-16.7-9.4l-.2.5zm16.5 9.3c6.8 5.7 10.7 11.8 12 18.7l.5-.1c-1.3-7-5.3-13.3-12.2-19l-.3.4zm12 18.7c.3 1.8.5 2.8.4 4.1-.1 1.2-.4 2.6-1.1 5l.5.1c.7-2.4 1-3.9 1.1-5.1.1-1.3 0-2.4-.4-4.2l-.5.1zm-.8 9.1c-.7 2.5-1.1 3.8-1.6 4.9-.5 1.1-1.2 1.9-2.4 3.3l.4.4c1.2-1.4 1.9-2.2 2.5-3.4.6-1.1 1-2.6 1.7-5l-.6-.2zm-4 8.2c-7.8 8.8-22.8 13.4-39.2 11.9v.5c16.5 1.5 31.7-3.1 39.7-12.1l-.5-.3zM236.2 393c-2.3-.2-7.5-1.3-11.8-2.5l-.1.5c4.3 1.2 9.6 2.3 11.9 2.5v-.5zm-11.8-2.5c-6.5-1.8-8.5-2.6-13.1-5.2l-.3.5c4.6 2.6 6.7 3.4 13.2 5.2l.2-.5zm-13-5.2c-12.6-7.1-20-16.8-20.6-26.9h-.6c.6 10.3 8.2 20.2 20.9 27.3l.3-.4zm-20.6-26.9c-.7-13.3 12.2-24.5 31.1-26.5l-.1-.5c-19 2-32.3 13.3-31.6 27.1l.6-.1zm31-26.5c2.6-.3 5.7-.4 8.2-.3 1.3 0 2.4.1 3.2.2.4.1.7.1 1 .2.1 0 .2.1.2.1.1 0 .1 0 0 0l.5-.3c-.1-.1-.2-.2-.3-.2-.1-.1-.2-.1-.4-.1-.3-.1-.6-.1-1-.2-.8-.1-2-.2-3.2-.2-2.5-.1-5.7 0-8.3.3l.1.5zm12.7.2c0-.1 0-.1 0 0 0-.1 0-.1 0 0 0 0 0 .1-.1.2 0 .2-.1.5-.2.9-.1.8-.4 1.8-.7 3.1-.6 2.6-1.5 6.1-2.5 9.9l.5.1c1-3.8 1.9-7.3 2.5-9.9.3-1.3.5-2.4.7-3.1.1-.4.1-.7.2-.9v-.6l-.4.3zm-3.4 14.1c-1.1 4.1-1.9 7.5-2.5 10-.3 1.2-.5 2.2-.6 2.9-.1.3-.1.6-.1.8v.4l.2.2.1-.5c.1 0 .1.1.2.1v-.2c0-.2 0-.4.1-.8.1-.7.3-1.6.6-2.9.6-2.5 1.4-5.9 2.5-10h-.5zm-2.9 14.2c.2.1.4-.1.4-.2.1-.1.2-.2.2-.4.2-.3.3-.7.5-1.2.4-1.1.9-2.7 1.4-4.6 1.1-3.9 2.5-9.4 3.9-15.5 2.8-12.2 5.8-26.8 7.3-36.6l-.5-.1c-1.5 9.7-4.4 24.4-7.3 36.5-1.4 6.1-2.8 11.5-3.9 15.5-.5 2-1 3.5-1.4 4.6-.2.5-.4.9-.5 1.2-.1.1-.1.2-.2.2-.1.1 0 0 .1 0v.6zm27.6-64-3.4 12.3.5.1 3.4-12.3-.5-.1zm11.7 92.4c-5.3 3.1-14.4 5.5-22.6 5.9v.5c8.2-.4 17.4-2.8 22.8-6l-.2-.4zm-22.6 5.9c-4.4.2-10.1-.4-15.6-1.5s-10.9-2.7-14.7-4.5l-.2.5c3.8 1.8 9.2 3.5 14.8 4.6s11.3 1.7 15.7 1.5v-.6zm-30.2-6c-3.6-1.7-7.4-4.1-10.6-6.4-3.2-2.4-5.8-4.8-7.2-6.8l-.5.3c1.4 2 4.1 4.5 7.3 6.9 3.2 2.4 7 4.7 10.6 6.5l.4-.5zM197 375.5c-.1-.1-.2-.2-.2-.3-.1-.1-.1-.1-.1-.2v.1s0 .1-.1.1c-.1.1-.1.1-.2.1h-.1c.2.2.7.7 1.6 1.5l.4-.4c-.8-.9-1.4-1.4-1.7-1.6l-.1-.1h-.2c-.1 0-.1 0-.2.1s-.1.1-.1.2v.2c0 .1.1.2.1.3.1.1.1.2.2.4l.7-.4zm1 1.4c4.1 4.2 8.9 7.8 14.6 10.7l.2-.5c-5.7-2.9-10.4-6.4-14.5-10.6l-.3.4zm14.6 10.7c4.6 2.3 6.5 3 14.1 4.8l.1-.5c-7.6-1.9-9.5-2.5-14-4.8l-.2.5zm14.2 4.8c9.7 2.3 14.4 2.7 23 1.9l-.1-.5c-8.5.8-13.2.5-22.8-1.9l-.1.5zm23 1.9c2.5-.3 6.1-1.1 9.5-2.1 3.4-1 6.5-2.2 8.3-3.3l-.3-.5c-1.7 1-4.8 2.2-8.1 3.2-3.4 1-6.9 1.8-9.4 2.1v.6zm17.7-5.4c.5-.3 1.1-.6 1.5-.8.2-.1.4-.2.5-.2h.1l.1-.5h-.2c-.1 0-.1 0-.2.1s-.3.1-.5.2c-.4.2-1 .5-1.5.8l.2.4zm2.1-1.1s-.1 0-.1-.1l-.1-.1v-.2c-.1.1-.2.2-.4.3-.4.3-.9.6-1.5 1l.3.5c.6-.4 1.2-.7 1.6-1 .2-.1.3-.2.4-.3 0 0 .1-.1.1-.2 0 0 .1-.1 0-.2 0-.1 0-.1-.1-.2l-.1-.1-.1.6zm13.8-212.4c10.3 2.8 25.1 9.4 36.5 18.6 11.3 9.2 19 21.1 15.1 34.4l.5.2c3.9-13.7-4-25.7-15.3-35-11.4-9.3-26.3-15.9-36.7-18.7l-.1.5zm51.6 53.1c0 .1 0 .2-.1.2l.5.2c0-.1 0-.2.1-.2l-.5-.2zm-133.2-12.6c.6 1 1.2 1.9 1.9 2.9l.4-.3c-.7-.9-1.3-1.9-1.9-2.8l-.4.2zm1.9 2.9c6 8.3 15.8 15.7 28.7 21.9l.2-.5c-12.9-6.1-22.6-13.5-28.5-21.7l-.4.3zm132.4 14.8c.1 6.1-.7 11.7-2.2 16.8l.5.2c1.6-5.1 2.3-10.8 2.2-16.9l-.5-.1zm-2.2 16.8c-.4 1.3-.8 2.5-1.3 3.6l.5.2c.5-1.2.9-2.4 1.3-3.7l-.5-.1zm-24.7 33.1c10.5-6.9 17.8-15.4 22.9-26.9l-.5-.2c-5.1 11.5-12.2 19.9-22.7 26.7l.3.4zm24.7-33.1c-.3 2.1-1.1 4-2.2 5.9l.5.3c1.2-1.9 2-3.9 2.3-6.1l-.6-.1zm-24.7 33.1c2-.7 3.8-1.6 5.4-2.7l-.3-.5c-1.6 1.1-3.4 1.9-5.3 2.6l.2.6zm5.4-2.7c1.1-.8 2.1-1.7 3.1-2.6l-.4-.4c-1 .9-2 1.8-3.1 2.6l.4.4zm18-26.8c-.3.8-.6 1.5-1 2.3l.5.2c.3-.8.7-1.5 1-2.3l-.5-.2zm-23.7 29c-1.4.9-2.9 1.8-4.4 2.7l.3.5c1.5-.9 3-1.8 4.4-2.7l-.3-.5zm-54.3 11.2c-10.5-1.1-36.1-9.2-54.2-32.5l-.4.3c18.2 23.5 43.9 31.6 54.5 32.7l.1-.5zm-54.2-32.4c-3.3-4.3-7-12.4-9.4-20.7-1.2-4.2-2-8.3-2.2-12.1-.2-3.8.1-7.1 1.2-9.6l-.5-.2c-1.1 2.6-1.5 6.1-1.2 9.9.2 3.8 1.1 8.1 2.2 12.2 2.3 8.3 6.1 16.5 9.5 20.9l.4-.4zM190 219.2l1.7-8.6-.5-.1-1.7 8.6.5.1zm1.7-8.5 6.1-13.7-.5-.2-6.1 13.7.5.2zm6.1-13.7c.5-1 1.7-3.4 2.7-4.5l-.4-.4c-1.1 1.2-2.3 3.6-2.8 4.7l.5.2zm103.7 52.1c3.1-.4 7.9-1.7 13.1-4 5.2-2.2 10.7-5.4 15.2-9.6l-.4-.4c-4.4 4.1-9.9 7.2-15 9.5-5.2 2.2-10 3.5-13 3.9l.1.6zm33.7-20.2c-.1 0-.2-.1-.2-.1l-.1-.1.5.2v-.1s0-.1-.1-.2-.2-.1-.3-.1c-.1 0-.2.1-.2.1l.4.3zM199 211.7c.3.6.9 1.5 1.4 2.2.6.8 1.1 1.5 1.4 1.9l.5-.3c-.3-.5-.9-1.2-1.4-2-.6-.8-1.1-1.6-1.4-2.2l-.5.4zm86.3-37 .2-.5-.2.5zm-45.2-4.5.1.5-.1-.5zM201 189.1l.5.3-.5-.3zm-6.3 10.6.5.3-.5-.3zm-7.2 26.2h-.6.6zm2.1 17.1-.5.2.5-.2zm1.2 4.1-.5.1.1.3.3.1.1-.5zm1.9 4.5.5-.2-.5.2zm4.2 7.9-.5.3.5-.3zm40.9 32.3-.2.5.2-.5zm4.3 1.6.5.1v-.4l-.4-.1-.1.4zm-.2 1.7.5.1-.5-.1zm-5.2 29.5.5.1-.5-.1zm-1.3 5.9v.6h.5l.1-.4-.6-.2zm-5.8 0v-.6.6zm-36.5 15.1-.5-.3.5.3zm-3.8 14.3h-.6.6zm2 7.5.2.5-.2-.5zm2.4 3.4-.5.3.5-.3zm1.8 3.5-.5.3 1-.5-.5.2zm-2-3.4-.5.3.5-.3zm3.4 6.2-.4.4.4-.4zm45.2 18.8v.5-.5zm22.2-4.4-.3-.5.3.5zm17.5-24.4h.5-.5zM251 334.2l.2-.5-.2.5zm-3.1-1.2-.5-.1-.1.4.4.2.2-.5zm.4-2.9-.5-.1.5.1zm4.3-18.4-.5-.1.5.1zm3.9-15.5.1-.5-.5-.1-.1.4.5.2zm2.5.3-.1.5.1-.5zm17.4-.4-.1-.5.1.5zm55.2-36.6-.5-.2.5.2zm5.5-19.9h.5-.5zm0-10.2-.5-.1v.2l.5-.1zm.6-9.7h.5-.5zM317.5 278l-.4-.4.4.4zm-3.1 2.6-.3-.5.3.5zm-28.9-106.4c-17.6-4.7-31.1-6-45.5-4.5l.1 1.1c14.2-1.5 27.6-.2 45.1 4.5l.3-1.1zm-45.5-4.5c-9.1 1-17.6 3.3-24.4 6.6-6.9 3.3-12.2 7.6-15.1 12.5l.9.6c2.7-4.6 7.9-8.8 14.6-12.1 6.7-3.3 15.1-5.6 24.1-6.5l-.1-1.1zm-39.5 19.1c-3.4 5.8-4.1 7.1-6.2 10.5l.9.6c2.1-3.5 2.8-4.7 6.2-10.6l-.9-.5zm-6.3 10.6c-1.7 2.8-3.5 7.8-4.9 12.9-1.4 5.1-2.4 10.3-2.4 13.7h1.1c0-3.2 1-8.3 2.4-13.4s3.2-9.9 4.8-12.6l-1-.6zm-7.3 26.5c0 6.1.7 12 2.2 17.2l1.1-.3c-1.4-5.1-2.2-10.9-2.2-16.9h-1.1zm2.2 17.2 1.2 4.2 1.1-.3-1.2-4.2-1.1.3zm1.6 4.6c-.1 0-.1-.1-.2-.1 0 .1.1.1.1.3.1.3.3.7.5 1.1.3.9.8 2 1.1 2.9l1-.4c-.4-.9-.8-2-1.1-2.9-.2-.4-.3-.9-.5-1.2-.1-.2-.1-.3-.2-.4 0-.1-.1-.1-.1-.2 0 0-.1-.2-.3-.2l-.3 1.1zm1.5 4.1c.7 1.8 2.6 5.4 4.2 8l.9-.6c-1.6-2.6-3.4-6.1-4.1-7.8l-1 .4zm4.2 8c9.1 14.7 23.5 26.1 41.2 32.5l.4-1c-17.5-6.3-31.7-17.6-40.6-32.1l-1 .6zm41.2 32.5 4.3 1.5.4-1-4.3-1.5-.4 1zm3.9 1-.2 1.7 1.1.1.2-1.7-1.1-.1zm-.2 1.7c-.6 5.1-3.3 20.3-5.2 29.4l1.1.2c1.9-9.1 4.6-24.3 5.2-29.5l-1.1-.1zm-5.2 29.5-1.3 6 1.1.2 1.3-6-1.1-.2zm-.7 5.5-5.8-.1v1.1l5.8.1V330zm-5.8-.1c-16.3-.2-30.3 5.6-36.9 15.4l.9.6c6.3-9.4 19.9-15.1 36-14.9v-1.1zm-36.9 15.4c-1.1 1.7-2.2 4.3-2.9 7-.7 2.7-1.2 5.5-1.1 7.6l1.1-.1c-.1-1.9.3-4.6 1-7.2.7-2.6 1.7-5.1 2.7-6.7l-.8-.6zm-4 14.6c.1 1.8.4 3.8.8 5.3.2.8.4 1.4.7 1.9.1.2.3.5.4.6.1.1.4.4.8.3l-.3-1.1c.2-.1.3.1.3 0 0 0-.1-.2-.2-.3-.2-.4-.4-1-.6-1.7-.4-1.4-.7-3.4-.8-5.1l-1.1.1zm2.8 8.1h-.3l.1.1c.1.1.3.3.5.6.4.6.9 1.4 1.4 2.4l1-.5c-.5-1-1-1.8-1.5-2.5-.2-.3-.4-.6-.6-.8l-.3-.3c-.1 0-.3-.2-.6-.1l.3 1.1zm1.7 3 1.8 3.5 1-.5-1.8-3.5-1 .5zm2.8 3-2.1-3.4-.9.6 2.1 3.4.9-.6zm-2.1-3.4c-.6-.9-1.1-1.8-1.5-2.3-.2-.3-.4-.5-.6-.6-.1-.1-.2-.2-.4-.2-.1 0-.3 0-.5.1s-.2.3-.3.4l1.1.3c0 .1-.1.2-.2.3-.1.1-.3.1-.4.1-.1 0-.1-.1-.1 0 .1.1.2.2.4.5.4.5.9 1.3 1.5 2.2l1-.8zm-3.2-2.7v.4c0 .1.1.2.1.4.1.3.2.6.4.9.3.7.8 1.5 1.4 2.4 1.1 1.8 2.6 3.9 3.9 5.4l.8-.7c-1.3-1.5-2.7-3.5-3.8-5.3-.6-.9-1-1.7-1.3-2.3-.2-.3-.3-.6-.3-.8 0-.1 0-.2-.1-.2 0-.1 0 0 0 0l-1.1-.2zm5.7 9.6c9.4 11.1 27.6 18.6 45.6 19v-1.1c-17.8-.3-35.7-7.8-44.8-18.6l-.8.7zm45.7 18.9c3.2.1 7.5-.4 11.6-1.2 4.1-.8 8.1-1.9 10.8-3.2l-.5-1c-2.6 1.2-6.5 2.3-10.6 3.1-4.1.8-8.2 1.3-11.4 1.2l.1 1.1zm22.4-4.4c11.4-5.2 18.1-14.4 17.8-24.9h-1.1c.3 10-6 18.8-17.2 23.9l.5 1zm17.8-24.9c-.4-13.9-11.6-25.8-31.1-33.5l-.4 1c19.3 7.6 30.1 19.2 30.4 32.5h1.1zm-31.1-33.4-3.2-1.2-.4 1 3.2 1.2.4-1zm-2.8-.7.4-2.8-1.1-.2-.4 2.8 1.1.2zm.4-2.8c.2-1.5 2.2-9.8 4.3-18.3l-1.1-.3c-2.1 8.5-4.1 16.8-4.3 18.4l1.1.2zm4.4-18.3 3.9-15.6-1.1-.3-3.9 15.6 1.1.3zm3.3-15.2 2.4.3.1-1.1-2.4-.3-.1 1.1zm2.4.3c4.7.5 11.1.4 17.5-.4l-.1-1.1c-6.4.7-12.7.9-17.3.4l-.1 1.1zm73.2-37.2c2.6-5.2 5.1-14.3 5.5-20.1l-1.1-.1c-.5 5.6-2.9 14.6-5.4 19.7l1 .5zm5.5-20.1c.2-2.5.2-7.1 0-10.3l-1.1.1c.2 3.1.2 7.7 0 10.1l1.1.1zm0-10.1c.3-.9.5-2.7.6-4.6.1-1.9.2-3.9 0-5.3l-1.1.1c.1 1.3.1 3.3 0 5.1-.1 1.9-.3 3.6-.6 4.4l1.1.3zm-52.4-54.3c8.2 2.4 20.7 7.5 31.4 15.1s19.5 17.5 20.6 29.4l1.1-.1c-1.1-12.4-10.2-22.6-21-30.2-10.8-7.6-23.4-12.8-31.7-15.3l-.4 1.1zm32.7 103.1c5.9-5.3 10.7-11.6 14.2-18.6l-1-.5c-3.4 6.9-8.1 13.1-13.9 18.3l.7.8zm-41.5 18.2c14.5-1.7 27.8-7.2 38.3-15.6l-.7-.9c-10.3 8.2-23.5 13.7-37.8 15.4l.2 1.1zm38.3-15.5c1.2-.8 2.3-1.7 3.2-2.7l-.8-.7c-.9.9-1.9 1.8-3 2.5l.6.9z"/><path fill="none" stroke="#000" stroke-width=".507" d="M249.7 214.1c-.3 1.4-1.7 2.4-3.9 2.9-2.1.5-5 .5-7.9-.2-3-.7-5.5-1.9-7.2-3.3-1.7-1.4-2.5-3-2.2-4.3.3-1.4 1.7-2.4 3.9-2.9 2.1-.5 5-.5 7.9.2 3 .7 5.5 1.9 7.2 3.3 1.8 1.4 2.6 2.9 2.2 4.3zm20 22.7c-.2 1-1.3 1.8-3 2.2-1.7.4-3.9.4-6.2-.2-2.3-.5-4.3-1.5-5.6-2.6-1.3-1.1-1.9-2.3-1.7-3.4.2-1 1.3-1.8 3-2.2 1.7-.4 3.9-.4 6.2.2 2.3.5 4.3 1.5 5.6 2.6 1.3 1.1 1.9 2.4 1.7 3.4zm31.4-15.4c-.2.7-.9 1.2-2 1.5-1.1.3-2.7.3-4.3-.1-1.6-.4-3-1-3.9-1.8-.9-.8-1.3-1.6-1.2-2.2.2-.7.9-1.2 2-1.5 1.1-.3 2.7-.3 4.3.1 1.6.4 3 1 3.9 1.8.9.8 1.3 1.6 1.2 2.2z"/><path d="M311.5 112.4v16.7m0-27.1v6.3m0 44.9v-16.7m0 27.1v-6.3m-20.4-24.5h16.7m-27.1 0h6.3m44.8 0h-16.7m27.2 0H336m-54.1-87.9v10.9m0-17.7v4.1m0 29.2V60.5m0 17.7v-4.1m-13.2-15.9h10.9m-17.7 0h4.1m29.2 0h-10.9m17.7 0h-4.1m-105.6 9.6v23.4m0-38.1v8.8m0 63v-23.4m0 38.1v-8.8m-28.5-34.4h23.4m-38.1 0h8.8m63 0h-23.4m38 0h-8.8" fill="none" stroke="#FF7A8B" stroke-width="1.253"/></svg>