<svg width="46" height="17" viewBox="0 0 46 17" fill="none" xmlns="http://www.w3.org/2000/svg">
<path fill-rule="evenodd" clip-rule="evenodd" d="M6.97981 4.07971C6.96582 3.59801 7.57455 2.65146 8.33218 1.97627C10.2316 0.283995 12.7376 0.225449 14.4444 1.83365C15.1367 2.48554 15.6347 3.24538 15.5518 3.52163C15.3079 4.32961 13.8808 4.44628 13.858 3.6598C13.8359 2.89945 12.4707 2.04463 11.332 2.07769C10.9455 2.08891 9.94136 2.73732 9.10091 3.51859C7.31132 5.18198 7.01409 5.26033 6.97981 4.07971ZM30.7305 4.30011C30.2944 3.88343 30.4959 3.45144 31.6282 2.37501C33.6183 0.483317 35.3553 0.488384 37.5613 2.39217C38.7284 3.4 39.195 4.12359 39.0121 4.64357C38.6073 5.79566 37.9069 5.59353 37.0679 4.08261C36.6544 3.33775 36.1316 2.73368 35.9062 2.74022C35.6809 2.74677 35.1957 2.64664 34.8276 2.51788C34.4596 2.38866 33.5136 2.85786 32.7256 3.56009C31.6093 4.55486 31.168 4.71813 30.7305 4.30011ZM21.4786 4.63437C20.8329 3.91185 20.4497 3.16474 20.6265 2.97382C21.0051 2.56605 25.6309 2.74227 26.098 3.18237C26.2742 3.34835 25.8796 4.07906 25.2214 4.80595C24.2555 5.87342 24.0881 6.40167 24.3524 7.54717C24.8785 9.82955 26.2413 10.9033 28.0987 10.4993C29.3189 10.2341 29.6693 10.3111 29.6849 10.8482C29.7314 12.4482 26.1868 12.647 24.6732 11.1291L23.5963 10.0489L22.177 10.9704C20.494 12.0632 18.3052 12.2236 17.0399 11.3461C15.6809 10.4044 16.6855 9.48628 18.3224 10.1745C19.326 10.5963 19.7388 10.5444 20.701 9.87425C21.7379 9.15195 22.6952 7.42833 22.6637 6.34119C22.6574 6.12487 22.1243 5.35642 21.4786 4.63437ZM1.50836 9.44168C2.19834 9.26843 2.967 9.05208 3.21698 8.96042C3.46698 8.86921 5.78782 8.71651 8.37493 8.62166C12.2661 8.47885 13.0818 8.56755 13.0983 9.13632C13.1093 9.51444 12.8865 9.83053 12.6033 9.83875C12.2582 9.84877 12.2935 10.0867 12.7092 10.5586C13.2241 11.1432 13.2201 11.3382 12.684 11.6992C12.328 11.9389 11.669 12.1484 11.2193 12.1656C10.7701 12.1823 9.15222 12.6572 7.62514 13.2208C5.60539 13.9662 4.70654 14.1125 4.32871 13.7565C3.6354 13.1032 4.46562 12.5548 7.65632 11.5581C12.1672 10.1487 12.2682 9.81545 8.07557 10.1766C5.93342 10.3609 3.30717 10.6743 2.23897 10.8732C0.631626 11.1721 0.29349 11.1072 0.275723 10.4953C0.263133 10.0618 0.773225 9.62586 1.50836 9.44168ZM37.3628 10.284C36.6106 10.1494 36.0842 9.75461 36.0715 9.31554C36.0534 8.69544 36.4075 8.61268 38.2386 8.80675C40.9148 9.09096 44.713 10.1894 45.1123 10.7952C45.7125 11.7048 44.7715 11.8092 41.7428 11.1687C40.0322 10.8069 38.061 10.4091 37.3628 10.284ZM34.3348 11.6008C33.9688 11.3995 33.814 10.9852 33.9907 10.6801C34.1674 10.3754 34.5252 10.1196 34.7859 10.112C35.6639 10.0865 42.6451 14.2264 42.6612 14.7823C42.6945 15.9286 41.8569 15.7488 38.4798 13.8863L37.2347 13.1998L34.3348 11.6008Z" fill="#FF7A8B"/>
</svg>
