<svg width="968" height="664" viewBox="0 0 968 664" fill="none" xmlns="http://www.w3.org/2000/svg">
<g clip-path="url(#clip0_230_293)">
<path d="M661.31 36.9672C472.353 -50.8531 250.543 25.6196 165.885 207.774L193.157 220.449C287.116 63.072 481.38 -3.1688 644.688 72.7307C807.997 148.63 882.61 339.835 822.888 513.124L850.16 525.799C934.818 343.645 850.267 124.787 661.31 36.9672Z" fill="#FF7A8B"/>
<path d="M822.888 513.124C882.61 339.835 807.997 148.63 644.688 72.7307C481.38 -3.1688 287.116 63.072 193.157 220.449L227.124 236.235C324.379 100.301 493.02 42.8303 632.751 107.772C772.483 172.714 837.28 338.678 796.073 500.661L822.888 513.124Z" fill="#FE8E69"/>
<path d="M796.073 500.661C837.28 338.678 772.483 172.714 632.751 107.772C493.02 42.8303 324.379 100.301 227.124 236.235L259.925 251.48C355.697 135.526 499.132 86.2604 616.046 140.597C732.959 194.934 787.777 336.341 760.888 484.309L796.073 500.661Z" fill="#FFAB6A"/>
<path d="M760.888 484.309C787.777 336.341 732.959 194.934 616.046 140.597C499.132 86.2604 355.697 135.526 259.925 251.48L285.134 263.196C376.699 167.728 498.716 128.589 597.807 174.643C696.898 220.696 745.648 339.201 731.706 470.746L760.888 484.309Z" fill="#FEC2B8"/>
<path d="M731.706 470.746C745.648 339.201 696.898 220.696 597.807 174.643C498.716 128.589 376.699 167.728 285.134 263.196L313.621 276.436C397.34 199.476 498.349 169.008 579.909 206.914C661.469 244.82 703.302 341.676 698.45 455.29L731.706 470.746Z" fill="#FFEEE6"/>
<path d="M698.45 455.29C703.302 341.676 661.469 244.82 579.909 206.914C498.349 169.008 397.34 199.476 313.621 276.436L348.777 292.775C420.762 234.888 499.951 213.241 563.685 242.862C627.419 272.483 661.927 346.973 664.089 439.32L698.45 455.29Z" fill="white"/>
<path d="M768.145 454.823C743.937 362.393 645.357 397.756 640.242 445.149C551.919 421.012 523.148 525.543 612.194 554.364C597.586 624.888 685.591 632.449 706.735 610.867C715.154 679.046 798.506 673.33 814.204 639.554C922.99 714.273 975.562 543.975 869.056 521.534C879.744 449.672 804.013 420.274 768.145 454.823Z" fill="#FE8E69"/>
<path d="M762.044 447.156C737.836 354.726 639.256 390.088 634.142 437.482C545.818 413.345 517.048 517.875 606.093 546.697C591.485 617.221 679.491 624.781 700.634 603.2C709.053 671.379 792.406 665.663 808.104 631.886C916.889 706.606 969.461 536.307 862.955 513.866C873.643 442.004 797.913 412.606 762.044 447.156Z" fill="white" stroke="#1B1B1B"/>
<path d="M254.333 216.023C230.125 123.593 131.545 158.955 126.43 206.349C38.1068 182.212 9.33608 286.742 98.3816 315.564C83.7732 386.088 171.779 393.648 192.923 372.067C201.342 440.246 284.694 434.53 300.392 400.753C409.178 475.473 461.75 305.174 355.243 282.733C365.931 210.871 290.201 181.473 254.333 216.023Z" fill="#FF7A8B"/>
<path d="M248.232 208.356C224.024 115.925 125.444 151.288 120.33 198.682C32.0063 174.544 3.23549 279.075 92.281 307.897C77.6727 378.42 165.679 385.981 186.822 364.399C195.241 432.579 278.593 426.863 294.292 393.086C403.077 467.806 455.649 297.507 349.143 275.066C359.831 203.204 284.101 173.806 248.232 208.356Z" fill="white" stroke="#1B1B1B"/>
</g>
<defs>
<clipPath id="clip0_230_293">
<rect width="968" height="664" fill="white"/>
</clipPath>
</defs>
</svg>
