<svg width="46" height="17" viewBox="0 0 46 17" fill="none" xmlns="http://www.w3.org/2000/svg"><path fill-rule="evenodd" clip-rule="evenodd" d="M6.98 4.08c-.014-.482.595-1.429 1.352-2.104 1.9-1.692 4.406-1.75 6.112-.142.693.652 1.19 1.411 1.108 1.688-.244.808-1.671.924-1.694.138-.022-.76-1.387-1.615-2.526-1.582-.387.01-1.39.66-2.231 1.44C7.31 5.183 7.014 5.26 6.98 4.08Zm23.75.22c-.436-.417-.234-.849.898-1.925 1.99-1.892 3.727-1.887 5.933.017 1.167 1.008 1.634 1.732 1.451 2.252-.405 1.152-1.105.95-1.944-.561-.414-.745-.936-1.35-1.162-1.343-.225.007-.71-.093-1.078-.222-.368-.13-1.314.34-2.102 1.042-1.117.995-1.558 1.158-1.995.74Zm-9.251.334c-.646-.722-1.03-1.47-.852-1.66.378-.408 5.004-.232 5.471.208.176.166-.218.897-.877 1.624-.965 1.067-1.133 1.596-.869 2.741.526 2.283 1.89 3.356 3.747 2.952 1.22-.265 1.57-.188 1.586.35.046 1.6-3.498 1.798-5.012.28l-1.077-1.08-1.419.921c-1.683 1.093-3.872 1.254-5.137.376-1.36-.942-.354-1.86 1.282-1.171 1.004.421 1.417.37 2.379-.3 1.037-.723 1.994-2.447 1.963-3.534-.007-.216-.54-.985-1.185-1.707ZM1.509 9.442c.69-.174 1.458-.39 1.708-.482.25-.09 2.57-.243 5.158-.338 3.891-.143 4.707-.054 4.723.514.011.378-.212.695-.495.703-.345.01-.31.248.106.72.515.584.511.78-.025 1.14-.356.24-1.015.45-1.465.467-.449.016-2.067.491-3.594 1.055-2.02.745-2.918.892-3.296.536-.694-.654.137-1.202 3.327-2.199 4.511-1.41 4.612-1.743.42-1.381-2.143.184-4.769.497-5.837.696-1.607.3-1.946.234-1.963-.378-.013-.433.497-.87 1.232-1.053Zm35.854.842c-.752-.135-1.279-.53-1.291-.968-.019-.62.335-.703 2.167-.51 2.676.285 6.474 1.383 6.873 1.99.6.909-.34 1.013-3.37.373-1.71-.362-3.681-.76-4.38-.885Zm-3.028 1.317c-.366-.202-.521-.616-.344-.92.176-.306.534-.561.795-.569.878-.026 7.86 4.114 7.875 4.67.033 1.147-.804.967-4.181-.896l-1.245-.686-2.9-1.6Z" fill="#FF7A8B"/></svg>