<svg width="387" height="412" viewBox="0 0 387 412" fill="none" xmlns="http://www.w3.org/2000/svg"><path d="M148.849 134.95c.746 4.574-2.476 13.305-7.218 19.557 2.071 2.016 4.738 9.45-1.161 23.056-6.443 14.86 14.766-1.004 16.875-16.081a76.348 76.348 0 0 0-.072-2.51 43.253 43.253 0 0 0-.351-3.881c-.714-5.259-2.399-10.719-5.02-16.241-2.132-4.492-3.338-6.101-3.09-4.15l.037.25Z" fill="#FF7A8B"/><path fill-rule="evenodd" clip-rule="evenodd" d="M136.205 323.65c7.272-3.775 14.582-9.768 18.13-14.866.851-1.221 1.422-2.201 1.27-2.176-.152.025-.871.917-1.598 1.982-2.217 3.25-9.451 9.631-13.818 12.189-7.421 4.346-11.883 5.969-21.621 7.865-7.731 1.505-9.697 1.703-14.796 1.49-6.38-.266-12.19-1.439-17.674-3.569-2.271-.882-2.88-.996-1.742-.327 4.22 2.479 13.665 4.497 21.755 4.647 8.447.156 22.244-3.161 30.094-7.235Z" fill="#FF7A8B"/><path d="M119.715 221.778c10.589-5.739 18.199-12.416 25.233-22.137a79.942 79.942 0 0 0 2.895-4.277c-26.689 26.593-72.619 32.541-107.862 26.088 26.278 13.694 52.954 10.324 63.007 6.927 2.145-.238 11.382-3.705 16.727-6.601Z" fill="#FF7A8B"/><path d="m11.865 166.874-.749-1.73-.723-1.672.05 4.155.128 10.807 2.548 8.783c.083 5.632 4.483 13.043 10.067 19.644 62.671 14.756 102.237-8.958 114.185-22.66-94.537 22.128-114.333 7.173-112.06-3.619a41.821 41.821 0 0 1-2.933-1.804c-1.784-1.204-3.425-2.133-3.647-2.065-.222.068-.5-.18-.62-.553-.12-.372-1.243-1.848-2.496-3.281-1.254-1.431-2.941-4.134-3.75-6.005Z" fill="#FF7A8B"/><path d="M96.45 182.829c-9.344 3.028-26.672 5.715-36.035 5.588-14.29-.193-26.243-2.869-35.104-7.835-2.273 10.792 17.523 25.747 112.06 3.619-11.948 13.702-51.514 37.416-114.185 22.66 5.44 6.433 12.005 12.095 16.795 14.591 35.243 6.453 81.173.505 107.862-26.088 6.674-10.6 9.66-21.297 9.502-33.882-2.109 15.077-23.318 30.941-16.875 16.081 5.899-13.606 3.232-21.04 1.161-23.056-.154.203-.31.406-.468.608-8.995 11.486-24.707 21.23-44.713 27.714Z" fill="#FEC2B8"/><path d="M25.362 178.543c-.05-3.285.487-8.604 2.237-14.763 1.59-5.591 2.218-6.895 5.314-11.019 4.27-5.688 9.944-12.076 11.368-12.797 2.446-1.24.08-2.187-2.895-1.159-8.762 3.028-19.09 10.759-24.43 18.287l-2.353 3.318a7.842 7.842 0 0 1-.438.627c-.753.98-1.674 1.804-2.343 2.95.709 2.346 1.883 4.651 3.552 7.001 2.576 3.629 8.714 8.579 9.64 7.775.162-.141.28-.213.348-.22Z" fill="#FF7A8B"/><path d="M114.013 127.312c-1.241-.56-2.285-1.191-2.319-1.4-29.98-4.469-59.363 6.733-70.308 12.893 2.975-1.028 5.341-.081 2.895 1.159-1.424.721-7.098 7.109-11.368 12.797-3.096 4.124-3.725 5.428-5.314 11.019-1.75 6.159-2.287 11.478-2.237 14.763.09-.009.096.096.007.312a.377.377 0 0 0-.021.199v.01c.029.152.14.32.325.503 1.9 1.874 11.614 5.202 19.452 6.465 26.813 4.321 59.237-3.145 81.403-18.745 5.946-4.184 12.737-10.498 12.091-11.241-.219-.253-.055-.388.365-.301l.029.005c.502.105 1.298.271 2.15-.635.154-.165.311-.366.468-.608-.46-.533-.396-2.914-.635-3.4-.297-4.16-3.237-6.376-3.781-6.571-2.793-3.615-5.699-6.152-10.701-9.342-2.863-1.826-6.34-4.117-7.725-5.092-1.386-.973-3.534-2.229-4.776-2.79Z" fill="#FEC2B8"/><path d="M111.694 125.912c.034.209 1.078.84 2.319 1.4 1.242.561 3.39 1.817 4.776 2.79 1.385.975 4.862 3.266 7.725 5.092 5.002 3.19 7.908 5.727 10.701 9.342.544.195 3.484 2.411 3.781 6.571.239.486.175 2.867.635 3.4 4.742-6.252 7.964-14.983 7.218-19.557a6.375 6.375 0 0 1-.037-.25l-.449-.42-.001-.001c-.222-.2-.443-.4-.446-.416-1.572-.63-10.222-6.551-36.222-7.951Z" fill="#FF7A8B"/><path fill-rule="evenodd" clip-rule="evenodd" d="M138.984 155.745c-.42-.087-.584.048-.365.301.646.743-6.145 7.057-12.091 11.241-22.166 15.6-54.59 23.066-81.403 18.745-7.838-1.263-17.551-4.591-19.452-6.465-.185-.183-.296-.351-.324-.503l-.038 1.518c8.86 4.966 20.815 7.642 35.104 7.835 9.363.127 26.691-2.56 36.035-5.588 20.006-6.484 35.718-16.228 44.713-27.714-.852.906-1.648.74-2.15.635l-.029-.005ZM25.362 178.543l-.009.358a.378.378 0 0 1 .016-.046 25.274 25.274 0 0 1-.007-.312Z" fill="#FEC2B8"/><path d="M25.014 178.763c-.926.804-7.064-4.146-9.64-7.775-1.669-2.35-2.843-4.655-3.552-7.001-.166.157-.437.535-.706 1.157l.749 1.73c.809 1.871 2.496 4.574 3.75 6.005 1.253 1.433 2.376 2.909 2.495 3.281.12.373.4.621.621.553.222-.068 1.863.861 3.647 2.065a41.821 41.821 0 0 0 2.933 1.804l.038-1.518-.002-.01a.377.377 0 0 1 .006-.153l.009-.358c-.069.007-.186.079-.348.22Z" fill="#FF7A8B"/><mask id="a" fill="#fff"><path d="M37.937 121.495c12.375-7.343 25.166-11.749 43.022-14.82 17.065-2.505 54.233-2.216 66.381 18.978 1.345 2.345 3.203 7.339 3.491 9.102 1.48 2.778 3.381 6.949 4.226 9.268 1.962 5.39 3.478 14.664 3.33 20.386-.199 7.743-1.96 15.402-5.07 22.635-.399 1.262-.983 2.487-1.711 3.667-5.995 11.902-15.703 22.435-28.118 29.976-5.502 3.341-11.204 6.105-15.668 7.593l-2.331.777 2.946 15.762c1.621 8.669 3.303 17 3.738 18.514l.792 2.751 3.38-.194c20.803-1.196 35.719 4.922 41.704 17.104 4.522 9.205 2.401 20.126-5.721 29.456-3.846 4.42-12.513 10.661-18.357 13.219-16.415 7.186-35.958 7.916-48.916 1.828-3.579-1.682-8.765-5.119-8.891-5.893-.053-.321 1.385.419 3.195 1.646l3.29 2.23-3.131-2.391c-1.723-1.315-3.307-2.239-3.52-2.053-.566.49-3.423-2.925-5.04-6.024-1.835-3.518-3.036-10.739-2.418-14.548 1.86-11.462 12.006-22.451 26.8-29.022l5.294-2.352-1.34-5.947c-2.05-9.089-5.96-24.009-7.591-28.957l-.542-1.642-4.527.381c-18.627 1.565-36.373-2.74-50.644-12.284-2.5-1.672-5.678-4.111-7.061-5.42-1.385-1.309-3.338-3.35-3.616-3.305l-2.823-3.299c-3.46-4.046-6.583-9.044-9.088-14.547-2.706-5.945-5.086-20.573-4.376-26.896.454-4.036.602-5.463 1.266-12.193 1.086-10.999 11.973-24.186 27.645-33.486Z"/></mask><path d="m148.655 134.959-.235-.143-.045.073.005.086.275-.016Zm-2.188 8.352-.232-.148-.013.021-.01.023.255.104Zm-19.939 23.976-.146-.233-.006.004-.006.004.158.225Zm-81.403 18.745-.044.272.044-.272Zm-19.756-7.177.199-.19-.049-.051-.066-.021-.084.262Zm-9.995-7.867.224-.16-.224.16Zm-4.376-12.844.275.003-.275-.003Zm6.41-17.518-.225-.159.225.159Zm62.067-32.796.045.271-.045-.271Zm65.473 91.811-.223-.161.223.161Zm-25.233 22.137-.131-.242.131.242Zm-16.727 6.601-.03-.273-.03.003-.028.009.088.261Zm-92.417-49.945-.273.034.002.016.004.016.267-.066Zm-.536-11.073.274.025-.274-.025Zm1.83-.487.252-.109v-.001l-.252.11Zm3.75 6.005.207-.181-.207.181Zm2.495 3.281-.262.085.024.073.058.05.18-.208Zm42.305 12.257.004-.275-.004.275Zm36.035-5.588.085.261-.085-.261Zm45.181-28.322-.219-.167.219.167Zm10.271-15.657-.249.118.249-.118ZM111.28 263.395l.268-.062-.268.062Zm8.59 31.482.157-.226-.157.226Zm-.131-2.209-.264.077.264-.077Zm-5.955-22.106-.266.07.266-.07Zm-.896-3.419-.023-.274-.327.026.083.318.267-.07Zm4.791-.388-.022-.275.022.275Zm19.003 1.556.072-.266-.072.266Zm18.835 12.108.226-.157-.226.157Zm2.88 17.928.263.08-.263-.08Zm-30.825 27.398.092.259-.092-.259Zm-11.833 2.649-.043-.271.043.271Zm-14.093.757-.022.274.022-.274Zm-30.162-15.955.243-.129-.243.129Zm17.275-37.41-.141-.236.14.236Zm11.861-5.12-.16.224.16-.224Zm2.923 14.376-.271.048.271-.048Zm50.792 23.742-.225-.157.225.157Zm-18.13 14.866-.127-.244.127.244Zm-30.094 7.235.005-.275-.005.275Zm-21.755-4.647.14-.238-.14.238Zm1.742.327.1-.256-.1.256Zm17.674 3.569.012-.274-.012.274Zm14.796-1.49.052.27-.052-.27Zm21.621-7.865.139.238-.139-.238Zm13.818-12.189.227.155-.227-.155ZM22.377 178.778l-.153.228.154-.228Zm2.934 1.804-.135.24.135-.24Zm131.611-25.491-.273.037.273-.037Zm.351 3.881-.275.012.275-.012Zm.072 2.51-.275.003.275-.003Zm-5.739 29.229.234.145.006-.01.006-.011-.246-.124ZM39.981 221.452l.127-.244-.127.244Zm-27.315-34.466.275-.004v-.032l-.008-.03-.267.066Zm135.714-52.011c.222 3.842-.87 6.184-2.145 8.188l.464.296c1.318-2.072 2.461-4.527 2.231-8.516l-.55.032Zm-22.01 32.087c-22.108 15.558-54.459 23.008-81.202 18.698l-.087.544c26.884 4.332 59.38-3.151 81.605-18.792l-.316-.45ZM45.168 185.76c-4.468-.72-8.83-1.923-12.35-3.237-1.76-.656-3.306-1.34-4.549-2.003-1.248-.665-2.171-1.301-2.701-1.855l-.398.38c.59.618 1.576 1.286 2.84 1.961 1.27.677 2.84 1.37 4.616 2.033 3.553 1.326 7.95 2.538 12.455 3.265l.087-.544Zm-19.715-7.167c-1.478-.473-3.304-1.513-5.086-2.893-1.78-1.378-3.5-3.083-4.77-4.872l-.448.319c1.307 1.841 3.067 3.583 4.88 4.988 1.813 1.403 3.696 2.482 5.256 2.982l.168-.524Zm-9.855-7.765c-2.996-4.219-4.373-8.274-4.325-12.681l-.55-.006c-.05 4.542 1.375 8.708 4.426 13.006l.449-.319Zm-4.325-12.681c.067-6.282 1.731-10.847 6.36-17.361l-.45-.319c-4.675 6.581-6.392 11.253-6.46 17.674l.55.006Zm6.36-17.361c11.03-15.524 34.92-28.166 61.887-32.685l-.09-.542c-27.05 4.532-51.1 17.222-62.247 32.908l.45.319Zm127.092 58.694c-7.009 9.687-14.589 16.337-25.141 22.056l.262.484c10.625-5.759 18.267-12.463 25.325-22.218l-.446-.322Zm-25.141 22.056c-2.658 1.441-6.292 3.026-9.532 4.283a83.385 83.385 0 0 1-4.381 1.574c-1.254.404-2.208.657-2.713.713l.061.546c.567-.063 1.572-.333 2.821-.736a84.66 84.66 0 0 0 4.411-1.584c3.251-1.261 6.908-2.856 9.595-4.312l-.262-.484Zm-108.74-43.135c-.527-4.234-.744-8.751-.535-11.015l-.548-.051c-.215 2.324.008 6.888.537 11.133l.546-.067Zm-.535-11.015.358-3.888-.548-.051-.358 3.889.548.05Zm-.169-3.804 1.472 3.401.505-.219-1.472-3.401-.505.219Zm1.472 3.401c.82 1.895 2.522 4.623 3.796 6.078l.414-.363c-1.233-1.409-2.906-4.087-3.705-5.933l-.505.218Zm3.796 6.078a39.888 39.888 0 0 1 1.66 2.023c.225.295.412.554.549.761.144.217.215.348.231.4l.524-.169c-.043-.135-.158-.327-.297-.536-.146-.22-.34-.489-.569-.789a40.902 40.902 0 0 0-1.684-2.053l-.414.363Zm45.004 15.631c9.394.128 26.752-2.565 36.123-5.602l-.17-.523c-9.316 3.019-26.615 5.702-35.946 5.575l-.008.55Zm36.123-5.602c20.388-6.608 36.357-16.606 45.316-28.417l-.439-.333c-8.866 11.689-24.72 21.639-45.047 28.227l.17.523Zm45.316-28.417c2.388-3.149 4.392-6.919 5.705-10.478 1.31-3.55 1.949-6.931 1.564-9.289l-.543.088c.362 2.216-.237 5.488-1.537 9.01-1.296 3.512-3.275 7.234-5.628 10.336l.439.333Zm7.269-19.767a6.373 6.373 0 0 1-.035-.24l-.546.069c.011.081.023.168.038.259l.543-.088Zm-.035-.24a2.451 2.451 0 0 1-.025-.504.265.265 0 0 1 .015-.078c.001-.004-.014.033-.066.058a.147.147 0 0 1-.108.012c-.005-.002.009.003.044.031.07.057.169.165.299.339.518.695 1.343 2.196 2.409 4.444l.497-.236c-1.065-2.245-1.91-3.793-2.465-4.537a2.513 2.513 0 0 0-.393-.437.71.71 0 0 0-.214-.125.4.4 0 0 0-.306.013.42.42 0 0 0-.202.218.846.846 0 0 0-.058.243c-.016.165-.005.377.027.628l.546-.069Zm-42.11 107.549c1.135 6.953 2.95 16.51 4.037 21.242l.536-.124c-1.083-4.716-2.896-14.26-4.03-21.206l-.543.088Zm4.037 21.242a555.313 555.313 0 0 0 5.183 20.59c.837 3.068 1.601 5.734 2.2 7.667.3.965.56 1.751.768 2.312.104.28.197.51.277.68.04.084.079.159.118.22a.578.578 0 0 0 .155.177l.314-.452c.027.019.025.028-.003-.016a1.687 1.687 0 0 1-.086-.164 8.807 8.807 0 0 1-.259-.636 48.005 48.005 0 0 1-.758-2.285c-.597-1.923-1.359-4.583-2.196-7.648a556.704 556.704 0 0 1-5.177-20.569l-.536.124Zm8.701 31.646a.649.649 0 0 0 .254.113c.112.02.24-.004.339-.103a.498.498 0 0 0 .13-.272c.014-.087.016-.184.01-.286-.024-.398-.177-1.056-.443-1.964l-.528.154c.268.914.402 1.515.422 1.843a.786.786 0 0 1-.004.16c-.006.034-.009.009.024-.024a.175.175 0 0 1 .144-.05c.017.003.008.006-.034-.023l-.314.452Zm.29-2.512c-.715-2.444-3.801-13.9-5.953-22.099l-.532.14c2.152 8.197 5.239 19.66 5.957 22.113l.528-.154Zm-5.953-22.099-.896-3.419-.533.14.897 3.419.532-.14Zm-1.14-3.075 4.792-.388-.045-.549-4.792.389.045.548Zm4.792-.388c5.891-.477 13.827.174 18.908 1.547l.144-.531c-5.15-1.392-13.15-2.046-19.097-1.565l.045.549Zm18.908 1.547c8.546 2.31 14.695 6.272 18.681 12.001l.452-.315c-4.078-5.86-10.352-9.882-18.989-12.217l-.144.531Zm18.681 12.001c1.033 1.483 1.6 2.39 2.015 3.534.418 1.151.685 2.554 1.091 5.038l.543-.089c-.404-2.475-.678-3.929-1.117-5.137-.441-1.216-1.045-2.173-2.08-3.661l-.452.315Zm3.106 8.572c.409 2.508.603 3.914.567 5.128-.035 1.206-.297 2.234-.83 3.99l.526.16c.534-1.759.816-2.848.854-4.134.037-1.276-.167-2.735-.574-5.233l-.543.089Zm-.263 9.118c-3.429 11.296-15.134 21.73-30.654 27.218l.184.519c15.616-5.522 27.499-16.055 30.996-27.577l-.526-.16Zm-30.654 27.218c-2.182.772-7.389 1.94-11.784 2.638l.086.543c4.404-.699 9.651-1.873 11.882-2.662l-.184-.519Zm-11.784 2.638c-6.644 1.055-8.802 1.17-14.028.753l-.044.549c5.279.421 7.483.302 14.158-.759l-.086-.543Zm-14.028.753c-14.444-1.153-25.22-6.885-29.94-15.809l-.487.257c4.844 9.155 15.838 14.939 30.383 16.101l.044-.549Zm-29.94-15.809c-6.24-11.792.841-27.32 17.171-37.045l-.281-.472c-16.433 9.785-23.822 25.594-17.377 37.775l.486-.258Zm17.171-37.045c2.25-1.339 5.044-2.73 7.354-3.727 1.156-.499 2.184-.897 2.96-1.14.39-.123.707-.203.941-.24.117-.019.205-.025.265-.022.069.003.067.015.041-.003l.321-.447a.618.618 0 0 0-.339-.1 1.948 1.948 0 0 0-.374.028c-.273.043-.62.133-1.02.259-.801.252-1.85.657-3.013 1.16-2.328 1.005-5.144 2.406-7.417 3.76l.281.472Zm11.561-5.132c-.045-.033-.061-.068-.053-.054a2.315 2.315 0 0 1 .092.262c.061.202.136.494.226.868.179.748.409 1.812.673 3.114a396.722 396.722 0 0 1 1.874 10.01l.542-.095a396.707 396.707 0 0 0-1.877-10.025 100.572 100.572 0 0 0-.677-3.132 17.2 17.2 0 0 0-.234-.898 3.342 3.342 0 0 0-.091-.27.88.88 0 0 0-.048-.103.363.363 0 0 0-.106-.124l-.321.447Zm2.812 14.2c.727 4.137 1.396 7.644 1.922 10.111.263 1.233.49 2.211.672 2.879.09.333.171.597.241.779.035.089.071.171.111.235a.471.471 0 0 0 .089.108.312.312 0 0 0 .256.076l-.089-.543a.239.239 0 0 1 .194.051c.019.017.024.028.017.017a1.005 1.005 0 0 1-.064-.142 7.978 7.978 0 0 1-.224-.725 56.534 56.534 0 0 1-.665-2.849c-.524-2.459-1.192-5.959-1.918-10.092l-.542.095Zm3.291 14.188c.21-.034.296-.223.328-.317.041-.117.062-.264.073-.425.023-.327.008-.788-.037-1.359-.091-1.147-.309-2.786-.628-4.797-.64-4.023-1.69-9.559-2.957-15.675-2.535-12.232-5.941-26.802-8.68-36.27l-.528.153c2.733 9.448 6.136 24.003 8.669 36.228 1.266 6.113 2.314 11.639 2.952 15.651.319 2.006.534 3.628.623 4.753.045.565.057.993.037 1.278a1.18 1.18 0 0 1-.044.283c-.024.069-.014-.027.103-.046l.089.543Zm-1.649-69.698 2.061 12.635.543-.088-2.061-12.635-.543.088Zm49.196 79.047c-3.516 5.051-10.787 11.018-18.032 14.779l.254.488c7.299-3.789 14.649-9.809 18.229-14.953l-.451-.314Zm-18.032 14.779c-3.898 2.023-9.287 3.865-14.76 5.18-5.474 1.316-11.01 2.101-15.202 2.024l-.011.55c4.256.079 9.842-.717 15.341-2.039 5.5-1.322 10.934-3.176 14.886-5.227l-.254-.488Zm-29.962 7.204c-4.026-.075-8.392-.614-12.276-1.444-3.89-.831-7.273-1.948-9.344-3.166l-.28.475c2.149 1.262 5.6 2.394 9.509 3.229 3.916.837 8.317 1.381 12.38 1.456l.011-.55ZM84.496 326c-.14-.082-.25-.15-.331-.205a1.057 1.057 0 0 1-.139-.104c-.012-.012.019.013.036.069a.259.259 0 0 1-.126.299c-.058.03-.104.023-.088.024.005 0 .02.001.05.007.263.05.956.287 2.1.731l.2-.512c-1.127-.438-1.874-.699-2.199-.76a.986.986 0 0 0-.13-.016.373.373 0 0 0-.188.038.295.295 0 0 0-.146.348.385.385 0 0 0 .096.155 1.5 1.5 0 0 0 .226.178c.095.063.215.138.36.223l.279-.475Zm1.502.821c5.514 2.142 11.356 3.321 17.763 3.588l.023-.549c-6.352-.265-12.133-1.434-17.587-3.551l-.199.512Zm17.763 3.588c5.128.214 7.117.012 14.859-1.495l-.105-.54c-7.72 1.503-9.663 1.697-14.731 1.486l-.023.549Zm14.859-1.495c9.765-1.901 14.256-3.534 21.708-7.897l-.278-.475c-7.391 4.328-11.822 5.941-21.535 7.832l.105.54Zm21.708-7.897c2.205-1.292 5.121-3.54 7.758-5.866 2.634-2.324 5.019-4.751 6.148-6.406l-.454-.31c-1.088 1.595-3.429 3.984-6.058 6.303-2.625 2.316-5.51 4.538-7.672 5.804l.278.475Zm13.906-12.272c.36-.528.718-1.011 1.002-1.363.142-.177.263-.317.355-.413.047-.048.081-.08.104-.099l.015-.011a.05.05 0 0 1-.015.007.154.154 0 0 1-.046.013l-.088-.543a.383.383 0 0 0-.131.05.554.554 0 0 0-.081.057c-.048.039-.1.089-.154.144a7.151 7.151 0 0 0-.388.449 22.71 22.71 0 0 0-1.027 1.399l.454.31Zm1.415-1.866a.256.256 0 0 1-.255-.114c-.049-.077-.039-.148-.039-.149.002-.017.004-.009-.018.043a4.28 4.28 0 0 1-.229.431c-.225.386-.576.93-.998 1.537l.451.314c.428-.614.788-1.171 1.023-1.574.116-.199.207-.37.26-.494a.788.788 0 0 0 .059-.201c.002-.028.01-.118-.047-.207a.3.3 0 0 0-.295-.129l.088.543ZM79.52 108.101c10.511-1.761 26.755-2.001 40.884 1.667 14.141 3.67 26.059 11.223 28.136 24.973l.544-.082c-2.127-14.087-14.335-21.736-28.542-25.424-14.217-3.691-30.54-3.448-41.113-1.676l.091.542Zm69.02 26.64.036.247.545-.077-.037-.252-.544.082ZM22.224 179.006a42.02 42.02 0 0 0 2.952 1.816l.27-.48a41.574 41.574 0 0 1-2.914-1.792l-.308.456Zm2.952 1.816c8.914 4.996 20.917 7.677 35.236 7.87l.007-.55c-14.261-.193-26.166-2.864-34.974-7.8l-.269.48Zm126.477-41.854c2.611 5.5 4.287 10.933 4.996 16.16l.546-.073c-.718-5.292-2.413-10.779-5.045-16.323l-.497.236Zm4.996 16.16c.176 1.299.293 2.585.349 3.856l.55-.024a43.354 43.354 0 0 0-.353-3.905l-.546.073Zm-8.573 40.383c6.703-10.646 9.703-21.395 9.544-34.033l-.55.007c.158 12.533-2.814 23.177-9.46 33.732l.466.294Zm8.583-40.338c.62 2.005.714 4.125.414 6.271l.544.076c.31-2.211.216-4.414-.432-6.51l-.526.163Zm-8.622 40.386c1.474-1.468 2.778-3.041 3.803-4.703l-.468-.289c-.998 1.618-2.273 3.157-3.723 4.602l.388.39Zm3.815-4.724a67.026 67.026 0 0 0 1.717-3.682l-.505-.217a66.295 66.295 0 0 1-1.704 3.652l.492.247Zm5.146-31.851c.038.842.062 1.676.072 2.501l.55-.007a76.91 76.91 0 0 0-.072-2.518l-.55.024Zm-9.388 36.233a79.215 79.215 0 0 1-2.885 4.263l.446.322a80.077 80.077 0 0 0 2.905-4.291l-.466-.294Zm-44.71 32.901c-9.997 3.378-36.593 6.743-62.792-6.91l-.254.488c26.357 13.735 53.113 10.36 63.222 6.944l-.176-.522Zm-62.792-6.91c-4.809-2.506-11.57-8.314-17.153-14.894-2.79-3.288-5.276-6.758-7.075-10.094-1.801-3.341-2.9-6.523-2.939-9.238l-.55.008c.042 2.843 1.185 6.117 3.005 9.491 1.821 3.378 4.333 6.881 7.14 10.189 5.607 6.609 12.422 12.475 17.318 15.026l.254-.488ZM12.933 186.92l-2.095-8.551-.534.131 2.095 8.551.534-.131Zm-2.087-8.489-.178-14.962-.55.007.178 14.962.55-.007Zm-.178-14.955c.016-1.143.161-3.776.594-5.255l-.528-.154c-.456 1.558-.6 4.258-.616 5.401l.55.008Zm116.007 4.044c2.613-1.644 6.477-4.87 10.258-9.079 3.781-4.209 7.493-9.415 9.789-15.026l-.51-.208c-2.264 5.534-5.934 10.688-9.688 14.867-3.756 4.18-7.582 7.369-10.142 8.98l.293.466Zm22.215-32.418c.024-.04.029-.036.01-.022a.196.196 0 0 1-.077.033.23.23 0 0 1-.136-.014c-.078-.033-.104-.093-.106-.096a.048.048 0 0 1-.004-.012l-.001-.001.545-.08a.494.494 0 0 0-.041-.139.346.346 0 0 0-.179-.179.333.333 0 0 0-.328.045.63.63 0 0 0-.153.179l.47.286ZM17.93 176.368c.533.46 1.404.979 2.23 1.447.844.478 1.637.902 2.064 1.191l.308-.456c-.451-.305-1.283-.75-2.1-1.213-.834-.473-1.657-.967-2.142-1.385l-.36.416Zm63.029-69.693-.08-.545-.014.003.094.542Zm-43.022 14.82.281.473-.28-.473Zm-27.645 33.486.548.054-.548-.054Zm-1.266 12.193.547.061-.547-.061Zm4.376 26.896-.501.228.5-.228Zm9.088 14.547-.418.357.418-.357Zm2.823 3.299-.418.358.201.235.306-.05-.089-.543Zm3.616 3.305.378-.4-.378.4Zm7.061 5.42-.306.457.306-.457Zm50.644 12.284.046.548-.046-.548Zm4.527-.381.522-.172-.136-.412-.432.036.046.548Zm.542 1.642.522-.172-.522.172Zm7.59 28.957.537-.12v-.001l-.536.121Zm1.341 5.947.223.503.413-.183-.1-.441-.536.121Zm-5.295 2.352-.223-.503.223.503Zm-26.8 29.022-.543-.088.544.088Zm2.42 14.548-.489.254.488-.254Zm5.038 6.024.36.415.002-.001-.362-.414Zm3.52 2.053-.333.437.334-.437Zm3.133 2.391-.309.455.643-.893-.334.438Zm-3.29-2.23-.31.456.31-.456Zm5.695 4.247-.234.498.234-.498Zm48.916-1.828.221.504-.221-.504Zm18.357-13.219-.415-.361.415.361Zm5.721-29.456.494-.243-.494.243Zm-41.704-17.104-.031-.55.031.55Zm-3.38.194-.529.153.122.422.439-.025-.032-.55Zm-.792-2.751-.528.152.528-.152Zm-3.738-18.514-.541.101.541-.101Zm-2.946-15.762-.174-.522-.455.151.088.472.541-.101Zm2.331-.777.174.522-.174-.522Zm15.668-7.593-.286-.471.286.471Zm34.899-56.278-.55-.015.55.015Zm-3.33-20.386.517-.188v-.001l-.517.189Zm-4.226-9.268-.543.089.015.09.042.08.486-.259Zm-3.491-9.102.477-.274-.477.274Zm5.977 61.391-.506-.217-.011.025-.008.026.525.166Zm-1.711 3.667-.468-.288-.013.02-.01.021.491.247Zm-70.74-84.578c-17.905 3.079-30.764 7.504-43.21 14.889l.562.946c12.304-7.301 25.028-11.689 42.834-14.751l-.187-1.084Zm-43.21 14.889c-7.883 4.678-14.574 10.34-19.436 16.229-4.855 5.881-7.918 12.028-8.475 17.676l1.095.108c.528-5.351 3.452-11.297 8.229-17.084 4.771-5.779 11.36-11.361 19.15-15.983l-.562-.946Zm-27.91 33.905c-.665 6.729-.813 8.154-1.265 12.186l1.093.122c.454-4.039.602-5.469 1.267-12.2l-1.095-.108ZM8.48 167.113c-.364 3.239.064 8.538.91 13.739.846 5.203 2.127 10.405 3.51 13.446l1.002-.456c-1.321-2.904-2.584-7.988-3.426-13.166-.843-5.18-1.25-10.357-.903-13.441l-1.093-.122Zm4.42 27.185c2.525 5.544 5.673 10.586 9.172 14.676l.836-.715c-3.423-4.002-6.519-8.955-9.006-14.417l-1.001.456Zm9.172 14.676 2.823 3.3.836-.715-2.823-3.3-.836.715Zm3.33 3.485a.466.466 0 0 1-.175-.003c-.032-.007-.053-.016-.059-.018-.012-.005-.006-.004.023.014.054.036.139.1.255.198.23.193.532.475.879.808.675.647 1.54 1.514 2.226 2.162l.756-.799c-.699-.66-1.503-1.469-2.22-2.157-.35-.335-.674-.638-.932-.855a3.834 3.834 0 0 0-.363-.278 1.188 1.188 0 0 0-.191-.105.678.678 0 0 0-.376-.053l.177 1.086Zm3.148 3.161c1.416 1.339 4.621 3.798 7.134 5.478l.612-.914c-2.487-1.664-5.637-4.084-6.99-5.363l-.756.799Zm7.134 5.478c14.384 9.62 32.257 13.95 50.996 12.375l-.092-1.096c-18.514 1.555-36.135-2.725-50.292-12.193l-.612.914Zm50.996 12.375 4.527-.38-.092-1.097-4.527.381.092 1.096Zm3.958-.756.542 1.642 1.045-.345-.541-1.642-1.046.345Zm.542 1.642c1.623 4.922 5.53 19.822 7.577 28.905l1.073-.242c-2.05-9.095-5.965-24.035-7.605-29.008l-1.045.345Zm7.577 28.905 1.34 5.947 1.073-.242-1.34-5.946-1.073.241Zm1.653 5.323-5.294 2.352.447 1.006 5.294-2.352-.447-1.006Zm-5.294 2.352c-14.89 6.615-25.219 17.724-27.12 29.437l1.087.176c1.82-11.212 11.783-22.079 26.48-28.607l-.447-1.006Zm-27.12 29.437c-.322 1.99-.167 4.815.29 7.561.457 2.748 1.228 5.497 2.184 7.329l.976-.509c-.88-1.685-1.626-4.306-2.075-7-.448-2.696-.584-5.386-.288-7.205l-1.087-.176Zm2.474 14.89a26.505 26.505 0 0 0 2.98 4.457c.503.601.99 1.11 1.404 1.443.203.163.419.309.632.392.191.074.563.162.872-.107l-.721-.831c.168-.146.326-.058.247-.088a1.523 1.523 0 0 1-.34-.224c-.332-.267-.766-.713-1.25-1.291a25.398 25.398 0 0 1-2.848-4.26l-.976.509Zm5.889 6.184a.453.453 0 0 1-.234.109c-.024.003-.042.003-.052.003l-.015-.001.01.002.028.007c.025.008.057.019.097.035.168.066.412.189.722.37.613.357 1.42.903 2.269 1.551l.668-.875c-.874-.667-1.72-1.241-2.383-1.627a6.73 6.73 0 0 0-.872-.443 1.765 1.765 0 0 0-.376-.109c-.085-.012-.36-.048-.585.149l.723.829Zm2.825 2.076 3.132 2.391.668-.875-3.132-2.391-.668.875Zm3.774 1.498-3.29-2.229-.618.911 3.291 2.229.617-.911Zm-3.29-2.229c-.916-.621-1.747-1.125-2.353-1.437a4.515 4.515 0 0 0-.781-.335.924.924 0 0 0-.438-.028.609.609 0 0 0-.38.253.613.613 0 0 0-.095.445l1.086-.177a.486.486 0 0 1-.08.349.487.487 0 0 1-.3.205c-.103.023-.158-.006-.088.013.098.028.288.107.572.253.552.284 1.345.763 2.24 1.37l.617-.911Zm-4.047-1.102a1 1 0 0 0 .168.394c.068.101.153.202.245.3.185.197.432.419.721.654.58.473 1.368 1.039 2.256 1.628 1.775 1.176 3.99 2.47 5.81 3.326l.468-.996c-1.759-.827-3.926-2.092-5.67-3.248a28.23 28.23 0 0 1-2.168-1.562 6.717 6.717 0 0 1-.615-.555 1.42 1.42 0 0 1-.134-.161c-.03-.045-.006-.025.005.043l-1.086.177Zm9.2 6.302c13.137 6.172 32.85 5.41 49.371-1.822l-.442-1.008c-16.308 7.14-35.681 7.838-48.461 1.834l-.468.996Zm49.371-1.822c2.97-1.3 6.632-3.524 10.028-5.969 3.394-2.444 6.561-5.137 8.523-7.392l-.83-.723c-1.884 2.165-4.974 4.801-8.336 7.222-3.36 2.42-6.953 4.596-9.827 5.854l.442 1.008Zm18.551-13.361c8.23-9.455 10.442-20.61 5.8-30.061l-.988.486c4.402 8.959 2.372 19.645-5.642 28.852l.83.723Zm5.8-30.061c-6.131-12.478-21.34-18.611-42.229-17.411l.063 1.099c20.716-1.191 35.339 4.912 41.178 16.798l.988-.486Zm-42.229-17.411-3.38.195.063 1.099 3.38-.195-.063-1.099Zm-2.82.592-.792-2.751-1.057.304.791 2.752 1.058-.305Zm-.792-2.751c-.426-1.482-2.102-9.779-3.726-18.463l-1.082.202c1.618 8.654 3.306 17.02 3.751 18.565l1.057-.304Zm-3.726-18.463-2.946-15.763-1.082.203 2.946 15.762 1.082-.202Zm-3.313-15.139 2.331-.777-.348-1.044-2.331.777.348 1.044Zm2.331-.777c4.515-1.505 10.255-4.289 15.779-7.645l-.571-.941c-5.478 3.328-11.142 6.07-15.556 7.542l.348 1.044Zm50.943-64.379c.149-5.791-1.377-15.134-3.363-20.588l-1.034.376c1.939 5.325 3.443 14.531 3.297 20.183l1.1.029Zm-3.363-20.589c-.856-2.348-2.769-6.543-4.257-9.338l-.972.518c1.471 2.761 3.361 6.908 4.195 9.197l1.034-.377Zm-4.2-9.167c-.154-.943-.709-2.678-1.378-4.44-.672-1.771-1.485-3.638-2.179-4.848l-.954.547c.651 1.136 1.439 2.939 2.105 4.691.668 1.762 1.186 3.405 1.32 4.227l1.086-.177Zm-70.335-27.448c8.486-1.245 21.982-1.796 34.854.599 12.891 2.398 25.018 7.724 30.97 18.108l.954-.547c-6.195-10.81-18.727-16.225-31.723-18.643-13.016-2.422-26.636-1.865-35.215-.606l.16 1.089Zm72.783 80.043c3.136-7.294 4.914-15.022 5.115-22.839l-1.1-.029c-.197 7.669-1.941 15.26-5.026 22.433l1.011.435Zm-30.049 33.895c12.5-7.592 22.282-18.201 28.324-30.198l-.982-.495c-5.947 11.806-15.582 22.263-27.913 29.752l.571.941ZM152.074 191c.749-1.213 1.353-2.479 1.767-3.79l-1.049-.332c-.383 1.213-.946 2.396-1.654 3.545l.936.577Z" fill="#000" mask="url(#a)"/><path d="M102.939 147.235c.275 1.363-.574 2.889-2.328 4.258-1.74 1.359-4.31 2.508-7.296 3.111-2.987.603-5.8.54-7.932-.037-2.147-.581-3.522-1.658-3.797-3.022-.275-1.363.574-2.889 2.328-4.258 1.74-1.359 4.31-2.508 7.296-3.111 2.986-.603 5.8-.54 7.931.037 2.148.581 3.522 1.658 3.798 3.022Zm-2.638 13.441c.211 1.043-.437 2.225-1.812 3.299-1.363 1.064-3.377 1.966-5.722 2.439-2.345.473-4.551.424-6.22-.028-1.684-.456-2.74-1.295-2.95-2.338-.21-1.043.437-2.226 1.812-3.3 1.363-1.063 3.377-1.965 5.722-2.438 2.345-.474 4.552-.424 6.22.028 1.684.456 2.74 1.295 2.95 2.338Zm15.353-8.769c.137.677-.281 1.468-1.225 2.205-.93.726-2.312 1.346-3.924 1.671-1.612.326-3.125.291-4.265-.018-1.156-.313-1.848-.88-1.984-1.557-.137-.676.281-1.467 1.225-2.204.93-.727 2.312-1.346 3.924-1.672 1.612-.325 3.125-.29 4.265.019 1.156.313 1.848.88 1.984 1.556Z" stroke="#000" stroke-width=".507"/><path d="M337.662 224.662c-1.232 4.469-7.805 11.056-14.724 14.757 1.04 2.697-2.081 14.681-13.123 24.581-12.06 10.813 13.837 5.253 22.049-7.566a81.35 81.35 0 0 0 .982-2.31 42.902 42.902 0 0 0 1.301-3.673c1.548-5.077 2.296-10.742 2.22-16.854-.061-4.972 1.955-11.053 1.366-9.177l-.071.242Z" fill="#FEC2B8"/><path fill-rule="evenodd" clip-rule="evenodd" d="M244.941 394.962c8.184-.393 17.329-2.787 22.681-5.938 1.283-.754 2.211-1.406 2.063-1.447-.149-.041-1.175.469-2.28 1.134-3.372 2.027-12.609 4.805-17.646 5.306-8.557.85-13.289.462-22.93-1.882-7.653-1.86-9.522-2.501-14.066-4.823-5.686-2.906-10.476-6.399-14.569-10.624-1.696-1.749-2.201-2.108-1.446-1.025 2.799 4.016 10.539 9.793 17.827 13.307 7.61 3.669 21.532 6.416 30.366 5.992Z" fill="#FF7A8B"/><path d="M309.198 203.177c-.894-1.028-1.579-2.036-1.523-2.241-32.029-13.552-61.966-9.669-74.482-8.642 3.132.308 4.886 2.157 2.145 2.262-1.594.061-9.418 3.496-15.673 6.881-4.535 2.455-5.65 3.377-9.428 7.794-2.838 3.317-5 6.516-6.509 9.168a35.75 35.75 0 0 0-1.689 3.312c.05.017 1-1.602 1.75-2.924.537-.946.971-1.74.9-1.674a.346.346 0 0 0-.103.172l-.003.01c-.038.15-.007.349.085.593.945 2.496 8.381 9.576 14.975 13.996 22.56 15.122 55.139 21.877 81.795 16.958 7.149-1.319 15.957-4.221 15.68-5.166-.094-.321.112-.376.458-.121l.023.017c.412.304 1.067.788 2.219.32.209-.085 2.876-4.318 3.12-4.473-.196-.676.856-2.813.842-3.354 1.467-3.904-.279-7.146-.691-7.55-1.029-4.451-2.61-7.969-5.823-12.956-1.84-2.856-4.042-6.389-4.894-7.853-.852-1.463-2.28-3.501-3.174-4.529Z" fill="#FEC2B8"/><path d="M307.675 200.936c-.056.205.629 1.213 1.523 2.241.894 1.028 2.322 3.066 3.174 4.529.852 1.464 3.054 4.997 4.894 7.853 3.213 4.987 4.794 8.505 5.823 12.956.412.404 2.158 3.646.691 7.55.014.541-1.038 2.678-.842 3.354 6.919-3.701 13.492-10.288 14.724-14.757a9.91 9.91 0 0 1 .071-.242l-.233-.569v-.001c-.118-.275-.235-.549-.231-.565-1.166-1.229-6.554-10.22-29.594-22.349Z" fill="#FF7A8B"/><path fill-rule="evenodd" clip-rule="evenodd" d="M317.576 243.555c-.346-.255-.552-.2-.458.121.277.945-8.531 3.847-15.68 5.166-26.656 4.919-59.235-1.836-81.795-16.958-6.594-4.42-14.03-11.5-14.975-13.996-.092-.244-.123-.443-.085-.593l-.668 1.363c5.978 8.213 15.722 15.636 28.626 21.778 8.455 4.025 25.322 8.818 35.076 9.968 20.886 2.462 39.232.169 52.201-6.512-1.152.468-1.807-.016-2.219-.32l-.023-.017Zm-115.537-21.844 1.637-2.855.169-.294.753-1.314.057-.099a.23.23 0 0 1 .034-.036c.04-.094-2.693 4.695-2.65 4.598Z" fill="#FEC2B8"/><path d="M196.118 210.675c-.535-2.832-.639-5.416-.304-7.844-.027.009-.014-.055.029-.175.157-.797.686-2.173 1.334-3.681a10.55 10.55 0 0 0-1.363 1.704l-4.172 9.37c.998.688 3.408 3.015 5.847 5.114-.613-1.555-1.118-3.147-1.371-4.488Z" fill="#FEC2B8"/><path d="M199.218 211.634c.047-.388-.357-2.198-.897-4.023-.433-1.458-.778-3.77-.876-5.679-.552.252-1.103.529-1.631.899-.335 2.428-.231 5.012.304 7.844.253 1.341.758 2.933 1.371 4.488 2.387 2.054 4.801 3.89 5.945 3.759.095-.172.193-.346.294-.523a40.982 40.982 0 0 1-1.725-2.605c-1.118-1.838-2.221-3.367-2.451-3.398-.23-.031-.38-.374-.334-.762Z" fill="#FEC2B8"/><path fill-rule="evenodd" clip-rule="evenodd" d="M202.039 221.711c-.065-.023-.202-.005-.408.055-.816.239-2.755-3.085-4.142-6.603 2.387 2.054 4.801 3.89 5.945 3.759.095-.172.193-.346.294-.523l.081.113.036.05.753-1.314a1.634 1.634 0 0 0-.012.037l-.003.01-.668 1.363a.643.643 0 0 1-.239.198l-1.637 2.855Zm2.616-4.562a.346.346 0 0 0-.057.099l.057-.099Zm-13.237-6.596.224-.504c-.515-.355-.653-.273-.224.504Zm18.819-1.322c-2.838 3.317-5 6.516-6.509 9.168a40.982 40.982 0 0 1-1.725-2.605c-1.118-1.838-2.221-3.367-2.451-3.398-.23-.031-.38-.374-.334-.762.047-.388-.357-2.198-.897-4.023-.433-1.458-.778-3.77-.876-5.679.171-.078.342-.154.512-.23.412-.182.82-.364 1.217-.573.225-.118.445-.245.661-.386l3.523-2.033c7.996-4.611 20.608-7.323 29.835-6.416 3.132.308 4.886 2.157 2.145 2.262-1.594.061-9.418 3.496-15.673 6.881-4.535 2.455-5.65 3.377-9.428 7.794Zm-12.792-7.299c-.552.252-1.103.529-1.631.899-.027.009-.014-.055.029-.175.157-.797.686-2.173 1.334-3.681a10.55 10.55 0 0 0-1.363 1.704l1.69-3.796-.041 1.821c.104-.093.086.03-.006.284l-.036 1.6c-.009.409 0 .864.024 1.344Z" fill="#FEC2B8"/><path d="m191.418 210.553-1.352 9.044c-2.276 5.152-1.373 13.723.945 22.053 50.785 39.576 96.639 34.549 113.217 27.088-35.746 0-99.215-12.304-112.81-58.185Z" fill="#FF7A8B"/><path d="M191.011 241.65c2.258 8.117 5.859 16.003 9.169 20.271 13.136 16.938 30.19 25.85 42.615 29.905 31.838 6.5 56.154-7.178 61.433-23.088-16.578 7.461-62.432 12.488-113.217-27.088Z" fill="#FF7A8B"/><path d="M272.494 295.51c12.018-.794 21.721-3.683 32.172-9.578a80.248 80.248 0 0 0 4.416-2.678c10.491-6.845 17.67-15.318 22.782-26.82-8.212 12.819-34.109 18.379-22.049 7.566 11.042-9.9 14.163-21.884 13.123-24.581-.244.155-2.911 4.388-3.12 4.473-12.969 6.681-31.315 8.974-52.201 6.512-9.754-1.15-26.621-5.943-35.076-9.968-12.904-6.142-22.648-13.565-28.626-21.778a.643.643 0 0 1-.126.129c-.75 1.322-1.7 2.941-1.75 2.924-.065-.023-.202-.005-.408.055-.816.239-2.755-3.085-4.142-6.603-2.439-2.099-4.849-4.426-5.847-5.114l-.224.504c13.595 45.881 77.064 58.185 112.81 58.185-5.279 15.91-29.595 29.588-61.433 23.088 4.751 1.55 8.825 2.391 11.744 2.698 2.049.679 11.889 1.386 17.955.986Z" fill="#FEC2B8"/><mask id="b" fill="#fff"><path d="M240.06 170.241c14.31-1.505 27.773-.168 45.28 4.498 16.552 4.849 50.204 20.631 52.393 44.961.242 2.693-.154 8.006-.629 9.729.185 3.142.171 7.726-.03 10.186-.467 5.716-2.963 14.777-5.486 19.914-3.414 6.953-8.212 13.177-14.059 18.451-.889.98-1.931 1.849-3.085 2.618-10.417 8.311-23.636 13.828-38.066 15.496-6.394.739-12.729.869-17.408.357l-2.442-.267-3.904 15.553c-2.147 8.554-4.098 16.826-4.334 18.383l-.429 2.831 3.152 1.234c19.402 7.6 30.401 19.387 30.753 32.956.265 10.252-6.222 19.289-17.498 24.377-5.341 2.41-15.822 4.461-22.2 4.346-17.916-.325-35.978-7.822-45.211-18.765-2.549-3.022-5.827-8.31-5.619-9.066.087-.314 1.084.959 2.217 2.829l2.059 3.4-1.848-3.48c-1.016-1.914-2.07-3.415-2.341-3.336-.718.21-1.888-4.086-2.064-7.577-.199-3.963 1.725-11.026 3.877-14.229 6.476-9.639 20.284-15.386 36.469-15.181l5.793.074 1.266-5.963c1.933-9.114 4.61-24.305 5.193-29.482l.194-1.718-4.273-1.544c-17.578-6.356-31.906-17.677-40.888-32.309-1.574-2.563-3.442-6.106-4.153-7.873-.712-1.768-1.635-4.438-1.906-4.512l-1.187-4.178c-1.456-5.121-2.206-10.966-2.184-17.012.023-6.532 3.969-20.817 7.254-26.266 2.097-3.478 2.828-4.713 6.242-10.551 5.579-9.541 20.978-16.977 39.102-18.884Z"/></mask><path d="m335.042 228.706-.154-.228-.071.048-.031.08.256.1Zm-5.476 6.675-.149-.231-.021.014-.018.016.188.201Zm-28.128 13.461-.036-.273-.007.001-.007.001.05.271Zm-81.795-16.958-.153.229.153-.229Zm-14.954-14.771.26-.09-.023-.066-.052-.047-.185.203Zm-5.798-11.322.271-.051-.271.051Zm1.387-13.497.249.118-.249-.118Zm13.139-13.241-.137-.239.137.239Zm70.092-3.884-.072.265.072-.265Zm21.157 110.763-.136-.24.136.24Zm-32.172 9.578-.018-.275.018.275Zm-17.955-.986.087-.261-.029-.01-.029-.003-.029.274Zm-63.121-83.971-.262-.084-.005.016-.003.015.27.053Zm4.137-10.287.238.138-.238-.138Zm1.866.322.275.006-.275-.006Zm.9 7.023.264-.078h-.001l-.263.078Zm.897 4.023-.273-.033-.009.077.032.07.25-.114Zm33.323 28.802.118-.248-.118.248Zm35.076 9.968-.032.273.032-.273Zm52.881-6.869-.13-.243.13.243Zm15.869-9.938-.275.003.275-.003Zm-88.915 96.206.269.056-.269-.056Zm-5.34 32.193.237-.139-.237.139Zm.804-2.061-.272-.04.272.04Zm3.819-22.574-.271-.047.271.047Zm.613-3.481.094-.258-.308-.113-.057.324.271.047Zm4.516 1.648.095-.258-.095.258Zm16.618 9.349.176-.212-.176.212Zm12.058 18.867.271-.048-.271.048Zm-4.869 17.493.206.182-.206-.182Zm-39.449 12.023-.025.274.025-.274Zm-11.858-2.533.074-.265-.074.265Zm-13.122-5.197-.134.24.134-.24Zm-20.745-27.092.275-.015-.275.015Zm31.317-26.779-.029-.274.029.274Zm12.916.301-.239.136.239-.136Zm-3.347 14.283-.266-.07.266.07Zm36.239 42.781-.139-.237.139.237Zm-22.681 5.938-.013-.275.013.275Zm-30.366-5.992.119-.248-.119.248Zm-17.827-13.307.226-.157-.226.157Zm1.446 1.025.197-.191-.197.191Zm14.569 10.624.125-.245-.125.245Zm14.066 4.823-.065.268.065-.268Zm22.93 1.882.028.274-.028-.274Zm17.646-5.306.142.236-.142-.236Zm-65.402-172.917-.235.143.235-.143Zm1.912 2.864-.222.162.222-.162Zm130.232 31.793-.263-.08.263.08Zm-1.301 3.673-.255-.104.255.104Zm-.983 2.31-.251-.112.251.112Zm-17.419 24.164.152.229.01-.007.009-.007-.171-.215ZM200.18 261.921l.217-.169-.217.169Zm-10.429-42.724.252.112.013-.029.006-.031-.271-.052Zm145.035 9.409c-1.403 3.583-3.373 5.255-5.369 6.544l.299.462c2.062-1.332 4.125-3.086 5.582-6.806l-.512-.2Zm-33.398 19.965c-26.585 4.906-59.091-1.833-81.592-16.915l-.306.457c22.619 15.162 55.272 21.931 81.997 16.999l-.099-.541Zm-81.592-16.915c-3.76-2.521-7.22-5.435-9.87-8.098-1.325-1.332-2.445-2.599-3.297-3.72-.856-1.126-1.43-2.089-1.68-2.815l-.52.18c.278.809.894 1.827 1.762 2.968.871 1.145 2.007 2.43 3.345 3.775 2.675 2.689 6.163 5.625 9.954 8.167l.306-.457Zm-14.922-14.746c-1.145-1.047-2.37-2.754-3.413-4.752-1.042-1.996-1.892-4.262-2.299-6.418l-.541.102c.419 2.219 1.29 4.537 2.352 6.571 1.06 2.031 2.321 3.798 3.53 4.903l.371-.406Zm-5.712-11.17c-.96-5.084-.518-9.344 1.365-13.328l-.497-.236c-1.941 4.107-2.387 8.487-1.409 13.666l.541-.102Zm1.365-13.328c2.684-5.681 6.103-9.134 13.028-13.121l-.275-.477c-6.996 4.028-10.507 7.557-13.25 13.362l.497.236Zm13.028-13.121c16.504-9.5 43.491-11.011 69.882-3.857l.144-.531c-26.471-7.176-53.623-5.688-70.301 3.911l.275.477Zm90.975 106.401c-10.414 5.875-20.077 8.753-32.054 9.543l.036.549c12.059-.796 21.802-3.697 32.289-9.613l-.271-.479Zm-32.054 9.543c-3.017.199-6.981.123-10.449-.088a84.528 84.528 0 0 1-4.639-.399c-1.307-.156-2.28-.325-2.762-.485l-.174.522c.543.18 1.568.354 2.871.509 1.312.156 2.929.296 4.67.402 3.481.212 7.47.29 10.519.088l-.036-.549Zm-80.796-84.599c1.289-4.067 2.978-8.262 4.113-10.232l-.477-.275c-1.165 2.022-2.868 6.263-4.16 10.34l.524.167Zm4.113-10.232 1.949-3.384-.477-.275-1.949 3.384.477.275Zm1.436-3.527-.083 3.705.55.012.083-3.705-.55-.012Zm-.083 3.705c-.047 2.064.361 5.254.911 7.107l.527-.156c-.532-1.795-.933-4.927-.888-6.939l-.55-.012Zm.911 7.107c.269.907.503 1.81.664 2.532.081.362.142.675.181.92.04.258.05.407.043.46l.546.066c.017-.141-.007-.364-.046-.611a15.927 15.927 0 0 0-.187-.955 40.827 40.827 0 0 0-.673-2.568l-.528.156Zm34.366 32.995c8.483 4.039 25.379 8.84 35.162 9.993l.065-.546c-9.726-1.147-26.565-5.932-34.991-9.943l-.236.496Zm35.162 9.993c21.285 2.509 39.971.092 53.042-6.9l-.259-.485c-12.937 6.92-31.497 9.34-52.718 6.839l-.065.546Zm53.042-6.9c3.486-1.864 6.88-4.452 9.56-7.138 2.672-2.678 4.665-5.484 5.3-7.788l-.531-.146c-.596 2.165-2.506 4.887-5.158 7.545-2.645 2.65-5.996 5.206-9.43 7.042l.259.485Zm14.86-14.926c.023-.084.046-.161.068-.232l-.525-.165a10.6 10.6 0 0 0-.074.251l.531.146Zm.068-.232a2.43 2.43 0 0 1 .188-.469.256.256 0 0 1 .046-.064c.002-.003-.027.024-.084.025a.151.151 0 0 1-.104-.034c-.003-.004.008.006.028.047.039.08.085.22.13.432.181.848.303 2.557.333 5.044l.55-.007c-.03-2.484-.151-4.244-.345-5.152a2.472 2.472 0 0 0-.175-.561.706.706 0 0 0-.142-.202.4.4 0 0 0-.284-.117.425.425 0 0 0-.274.114.839.839 0 0 0-.154.197c-.084.143-.162.34-.238.582l.525.165Zm-83.171 80.142c-1.872 6.791-4.213 16.233-5.201 20.986l.538.112c.986-4.737 3.323-14.167 5.194-20.952l-.531-.146Zm-5.201 20.986a557.113 557.113 0 0 0-3.888 20.874c-.521 3.137-.94 5.879-1.202 7.885a48.896 48.896 0 0 0-.268 2.422 9.258 9.258 0 0 0-.032.733c.001.094.006.178.015.25.008.061.023.15.067.225l.474-.279c.017.028.011.036.005-.016a1.359 1.359 0 0 1-.01-.185 8.365 8.365 0 0 1 .03-.686c.044-.583.135-1.393.265-2.393.26-1.997.679-4.732 1.199-7.866a555.51 555.51 0 0 1 3.883-20.852l-.538-.112Zm-5.308 32.389a.652.652 0 0 0 .183.209.378.378 0 0 0 .352.048.493.493 0 0 0 .231-.193c.05-.073.092-.16.129-.255.145-.372.28-1.034.418-1.97l-.544-.08c-.139.941-.268 1.544-.387 1.85a.732.732 0 0 1-.07.144c-.019.029-.012.005.032-.012a.172.172 0 0 1 .151.015c.015.01.005.009-.021-.035l-.474.279Zm1.313-2.161c.37-2.52 2.35-14.217 3.818-22.566l-.542-.095c-1.468 8.346-3.449 20.052-3.82 22.581l.544.08Zm3.818-22.566.613-3.481-.542-.095-.613 3.481.542.095Zm.248-3.27 4.516 1.648.189-.517-4.517-1.648-.188.517Zm4.516 1.648c5.552 2.026 12.492 5.931 16.535 9.301l.353-.423c-4.098-3.414-11.095-7.349-16.699-9.395l-.189.517Zm16.535 9.301c6.801 5.667 10.733 11.835 11.964 18.705l.542-.097c-1.259-7.028-5.28-13.303-12.153-19.031l-.353.423Zm11.964 18.705c.319 1.779.456 2.84.355 4.052-.101 1.221-.444 2.607-1.113 5.033l.531.146c.666-2.417 1.024-3.852 1.13-5.133.107-1.29-.042-2.411-.361-4.195l-.542.097Zm-.758 9.085c-.675 2.451-1.086 3.808-1.625 4.897-.536 1.081-1.203 1.906-2.421 3.279l.412.365c1.219-1.375 1.931-2.247 2.502-3.4.567-1.144.99-2.555 1.663-4.995l-.531-.146Zm-4.046 8.176c-7.832 8.833-22.825 13.426-39.218 11.932l-.05.548c16.495 1.503 31.691-3.105 39.68-12.115l-.412-.365Zm-39.218 11.932c-2.306-.21-7.525-1.323-11.809-2.524l-.149.53c4.294 1.203 9.551 2.328 11.908 2.542l.05-.548Zm-11.809-2.524c-6.478-1.815-8.488-2.611-13.061-5.172l-.269.48c4.621 2.587 6.672 3.398 13.181 5.222l.149-.53Zm-13.061-5.172c-12.643-7.079-20.041-16.787-20.605-26.867l-.549.031c.578 10.34 8.153 20.187 20.885 27.316l.269-.48Zm-20.605-26.867c-.746-13.32 12.173-24.474 31.071-26.491l-.058-.547c-19.017 2.03-32.333 13.309-31.562 27.069l.549-.031Zm31.071-26.491c2.604-.278 5.723-.375 8.239-.316 1.258.029 2.359.097 3.166.2.405.051.727.11.955.174.114.033.196.064.25.091.061.032.054.042.038.015l.478-.272a.628.628 0 0 0-.266-.233 1.945 1.945 0 0 0-.351-.13 7.488 7.488 0 0 0-1.035-.191c-.833-.106-1.955-.175-3.222-.204-2.536-.059-5.679.038-8.31.319l.058.547Zm12.648.164c-.027-.049-.027-.087-.026-.072a.278.278 0 0 1 0 .044c-.003.051-.01.128-.025.233-.03.209-.082.506-.157.884-.15.754-.386 1.816-.689 3.109a398.795 398.795 0 0 1-2.477 9.879l.533.14a400.779 400.779 0 0 0 2.48-9.893c.304-1.296.541-2.365.692-3.128.076-.381.131-.69.163-.914.015-.112.026-.208.03-.284a1.065 1.065 0 0 0-.001-.113.382.382 0 0 0-.045-.158l-.478.273Zm-3.374 14.077c-1.067 4.062-1.923 7.528-2.476 9.99a57.78 57.78 0 0 0-.591 2.897c-.057.34-.093.613-.106.808-.006.095-.007.185.003.26a.433.433 0 0 0 .036.135c.02.046.076.142.2.176l.146-.531c.106.03.147.11.155.128.01.023.01.035.008.022a1.026 1.026 0 0 1 .002-.156 7.95 7.95 0 0 1 .099-.752c.111-.667.31-1.639.585-2.866.551-2.453 1.405-5.912 2.472-9.971l-.533-.14Zm-2.934 14.266c.206.057.362-.079.431-.151.085-.089.166-.214.243-.356.158-.287.337-.712.534-1.25.397-1.08.883-2.661 1.432-4.621 1.099-3.923 2.456-9.392 3.859-15.478 2.804-12.173 5.793-26.835 7.258-36.581l-.544-.082c-1.462 9.727-4.447 24.373-7.251 36.539-1.401 6.083-2.756 11.542-3.852 15.453-.548 1.957-1.03 3.521-1.418 4.58-.195.532-.363.926-.5 1.176-.07.128-.123.203-.159.239-.05.053-.001-.03.113.001l-.146.531Zm27.604-64.02-3.403 12.342.531.146 3.402-12.341-.53-.147Zm11.696 92.368c-5.304 3.122-14.402 5.508-22.555 5.9l.026.549c8.215-.394 17.407-2.796 22.808-5.975l-.279-.474Zm-22.555 5.9c-4.388.211-10.053-.366-15.576-1.456-5.523-1.09-10.881-2.688-14.658-4.509l-.239.495c3.834 1.849 9.242 3.459 14.791 4.554 5.549 1.095 11.261 1.679 15.708 1.465l-.026-.549Zm-30.234-5.965c-3.627-1.749-7.369-4.062-10.552-6.438-3.188-2.379-5.794-4.807-7.168-6.778l-.452.315c1.425 2.044 4.087 4.513 7.291 6.904 3.209 2.395 6.981 4.727 10.642 6.492l.239-.495Zm-17.72-13.216a6.751 6.751 0 0 1-.215-.324 1.11 1.11 0 0 1-.083-.153c-.005-.016.012.02.004.078a.259.259 0 0 1-.24.218c-.065.003-.104-.021-.089-.014a.334.334 0 0 1 .042.027c.218.155.749.66 1.603 1.542l.395-.383c-.841-.868-1.411-1.417-1.68-1.608a.938.938 0 0 0-.112-.069.367.367 0 0 0-.186-.044.295.295 0 0 0-.278.255.384.384 0 0 0 .022.181c.027.075.075.164.132.256.059.097.137.215.233.353l.452-.315Zm1.022 1.374c4.116 4.248 8.932 7.758 14.642 10.676l.25-.489c-5.661-2.893-10.426-6.369-14.497-10.57l-.395.383Zm14.642 10.676c4.57 2.336 6.462 2.984 14.126 4.847l.13-.535c-7.642-1.858-9.488-2.493-14.006-4.801l-.25.489Zm14.126 4.847c9.666 2.349 14.43 2.741 23.023 1.888l-.055-.548c-8.522.847-13.223.462-22.838-1.875l-.13.535Zm23.023 1.888c2.543-.253 6.131-1.078 9.499-2.091 3.363-1.011 6.544-2.221 8.261-3.253l-.284-.472c-1.654.995-4.779 2.189-8.136 3.198-3.353 1.008-6.902 1.822-9.395 2.07l.055.548Zm17.76-5.344c.547-.33 1.074-.62 1.479-.821.203-.101.372-.178.495-.226.063-.025.107-.039.136-.047l.018-.004-.016.001c-.009-.001-.026-.002-.048-.008l.147-.53a.381.381 0 0 0-.14-.01.575.575 0 0 0-.097.018c-.06.015-.128.039-.2.067-.145.057-.33.142-.54.246-.421.21-.96.507-1.518.842l.284.472Zm2.064-1.105a.257.257 0 0 1-.183-.211c-.013-.09.026-.15.026-.151.009-.015.007-.007-.034.031a4.438 4.438 0 0 1-.388.297c-.366.256-.912.604-1.549.979l.279.474a24.795 24.795 0 0 0 1.586-1.003c.189-.133.343-.25.443-.341a.715.715 0 0 0 .137-.158.32.32 0 0 0 .044-.207.293.293 0 0 0-.214-.24l-.147.53Zm13.826-212.408c10.286 2.789 25.146 9.353 36.453 18.585 11.316 9.24 18.993 21.079 15.138 34.441l.529.153c3.949-13.689-3.95-25.737-15.319-35.02-11.377-9.29-26.311-15.885-36.657-18.69l-.144.531Zm51.591 53.026-.07.24.527.157.072-.244-.529-.153Zm-133.26-12.523a41.65 41.65 0 0 0 1.925 2.883l.445-.324a41.039 41.039 0 0 1-1.9-2.845l-.47.286Zm1.925 2.883c6.013 8.262 15.8 15.71 28.73 21.864l.236-.496c-12.878-6.13-22.579-13.528-28.521-21.692l-.445.324Zm132.399 14.78c.076 6.089-.669 11.724-2.208 16.771l.526.16c1.558-5.108 2.309-10.801 2.232-16.938l-.55.007Zm-2.208 16.771a42.686 42.686 0 0 1-1.293 3.649l.51.207a42.976 42.976 0 0 0 1.309-3.696l-.526-.16Zm-24.652 33.113c10.536-6.874 17.75-15.388 22.883-26.938l-.503-.224c-5.09 11.454-12.235 19.885-22.68 26.701l.3.461Zm24.643-33.069c-.275 2.081-1.074 4.046-2.243 5.871l.463.297c1.204-1.88 2.039-3.921 2.325-6.096l-.545-.072Zm-24.698 33.097c1.952-.719 3.794-1.603 5.419-2.685l-.305-.458c-1.581 1.053-3.383 1.919-5.304 2.627l.19.516Zm5.438-2.699a67.548 67.548 0 0 0 3.099-2.629l-.369-.409a66.44 66.44 0 0 1-3.073 2.608l.343.43Zm17.976-26.793a76.885 76.885 0 0 1-.979 2.302l.503.224c.338-.76.666-1.533.986-2.319l-.51-.207Zm-23.659 29.003a79.365 79.365 0 0 1-4.402 2.669l.271.479a79.566 79.566 0 0 0 4.431-2.687l-.3-.461Zm-54.364 11.227c-10.495-1.105-36.066-9.153-54.171-32.498l-.435.338c18.214 23.486 43.936 31.59 54.548 32.708l.058-.548Zm-54.171-32.498c-3.323-4.285-7.042-12.386-9.367-20.696-1.162-4.152-1.973-8.344-2.214-12.126-.242-3.788.089-7.137 1.187-9.621l-.503-.223c-1.15 2.601-1.477 6.054-1.233 9.879.244 3.831 1.064 8.062 2.233 12.239 2.336 8.347 6.079 16.523 9.462 20.886l.435-.338Zm-10.375-42.503 1.666-8.644-.54-.105-1.667 8.645.541.104Zm1.647-8.585 6.086-13.669-.503-.224-6.085 13.67.502.223Zm6.083-13.663c.492-1.032 1.723-3.364 2.734-4.527l-.415-.36c-1.065 1.225-2.323 3.618-2.816 4.65l.497.237Zm103.721 52.114c3.062-.403 7.92-1.721 13.112-3.966 5.194-2.246 10.741-5.427 15.169-9.567l-.376-.402c-4.368 4.084-9.854 7.234-15.011 9.464-5.157 2.229-9.966 3.53-12.965 3.925l.071.546Zm33.723-20.181c.039-.026.042-.021.018-.016a.198.198 0 0 1-.084-.002.24.24 0 0 1-.117-.069c-.058-.063-.056-.128-.056-.132v-.013l.001-.001.528.155a.52.52 0 0 0 .021-.143.353.353 0 0 0-.088-.238.332.332 0 0 0-.317-.096.61.61 0 0 0-.214.099l.308.456Zm-136.228-17.186c.292.64.867 1.476 1.422 2.246.567.787 1.11 1.503 1.378 1.943l.47-.285c-.282-.465-.853-1.218-1.402-1.98-.56-.777-1.102-1.569-1.367-2.152l-.501.228Zm86.372-37.009.154-.529-.013-.003-.141.532Zm-45.28-4.498.057.548-.057-.548Zm-39.102 18.884.475.278-.475-.278Zm-6.242 10.551.472.284-.472-.284Zm-7.254 26.266-.551-.002.551.002Zm2.184 17.012-.529.151.529-.151Zm1.187 4.178-.529.15.085.298.298.082.146-.53Zm1.906 4.512.51-.206-.51.206Zm4.153 7.873-.469.288.469-.288Zm40.888 32.309-.187.517.187-.517Zm4.273 1.544.547.062.048-.432-.408-.147-.187.517Zm-.194 1.718.547.062-.547-.062Zm-5.193 29.482.538.114-.538-.114Zm-1.266 5.963-.007.55.452.006.094-.442-.539-.114Zm-5.793-.074.007-.55-.007.55Zm-36.469 15.181-.457-.307.457.307Zm-3.877 14.229-.549.027.549-.027Zm2.064 7.577.154.529.001-.001-.155-.528Zm2.341 3.336-.486.258.486-.258Zm1.848 3.48-.471.285.957-.543-.486.258Zm-2.059-3.4-.471.285.471-.285Zm3.402 6.237-.42.355.42-.355Zm45.211 18.765-.01.55.01-.55Zm22.2-4.346-.227-.502.227.502Zm17.498-24.377.55-.014-.55.014Zm-30.753-32.956.201-.512-.201.512Zm-3.152-1.234-.544-.083-.066.435.409.16.201-.512Zm.429-2.831-.544-.083v.001l.544.082Zm4.334-18.383-.534-.134.534.134Zm3.904-15.553.06-.547-.477-.053-.116.466.533.134Zm2.442.267-.059.547.059-.547Zm17.408-.357-.063-.547.063.547Zm55.21-36.565-.494-.243.494.243Zm5.486-19.914.548.044-.548-.044Zm.03-10.186-.53-.146-.024.088.005.09.549-.032Zm.629-9.729.548-.049-.548.049Zm-20.204 58.28-.368-.409-.021.019-.018.02.407.37Zm-3.085 2.618-.305-.458-.02.013-.018.014.343.431Zm-28.963-106.391c-17.555-4.678-31.087-6.027-45.479-4.513l.115 1.095c14.229-1.497 27.623-.171 45.081 4.481l.283-1.063Zm-45.479-4.513c-9.117.959-17.56 3.31-24.437 6.631-6.868 3.317-12.217 7.623-15.082 12.523l.95.555c2.714-4.642 7.854-8.824 14.611-12.087 6.748-3.259 15.066-5.58 24.073-6.527l-.115-1.095Zm-39.519 19.154c-3.414 5.836-4.143 7.069-6.238 10.544l.943.568c2.098-3.481 2.83-4.718 6.245-10.557l-.95-.555Zm-6.238 10.544c-1.683 2.791-3.507 7.785-4.91 12.864-1.403 5.081-2.412 10.343-2.424 13.684l1.101.004c.011-3.191.987-8.338 2.384-13.395 1.397-5.058 3.189-9.932 4.792-12.589l-.943-.568Zm-7.334 26.548c-.021 6.091.734 11.988 2.206 17.165l1.058-.301c-1.439-5.066-2.184-10.859-2.163-16.86l-1.101-.004Zm2.206 17.165 1.187 4.177 1.059-.301-1.188-4.177-1.058.301Zm1.57 4.557a.49.49 0 0 1-.203-.117c-.009-.01-.004-.006.014.022.035.056.085.149.15.287.127.271.285.653.461 1.1.343.871.767 2.019 1.119 2.895l1.021-.411c-.359-.891-.752-1.962-1.116-2.887a20.87 20.87 0 0 0-.49-1.166 3.88 3.88 0 0 0-.213-.403 1.29 1.29 0 0 0-.131-.176.678.678 0 0 0-.319-.205l-.293 1.061Zm1.541 4.187c.727 1.807 2.613 5.38 4.195 7.956l.938-.575c-1.566-2.551-3.417-6.064-4.112-7.792l-1.021.411Zm4.195 7.956c9.053 14.747 23.486 26.144 41.17 32.538l.374-1.035c-17.472-6.317-31.696-17.563-40.606-32.078l-.938.575Zm41.17 32.538 4.273 1.545.374-1.035-4.273-1.545-.374 1.035Zm3.913.966-.193 1.718 1.093.123.194-1.718-1.094-.123Zm-.193 1.718c-.581 5.15-3.253 20.321-5.185 29.429l1.076.228c1.935-9.12 4.615-24.331 5.202-29.534l-1.093-.123Zm-5.185 29.429-1.266 5.963 1.077.228 1.265-5.963-1.076-.228Zm-.721 5.527-5.793-.074-.014 1.101 5.793.073.014-1.1Zm-5.793-.074c-16.291-.207-30.315 5.575-36.933 15.424l.913.614c6.335-9.428 19.927-15.142 36.006-14.937l.014-1.101Zm-36.933 15.424c-1.124 1.673-2.162 4.305-2.894 6.992-.732 2.687-1.179 5.507-1.075 7.571l1.099-.055c-.096-1.899.32-4.592 1.038-7.227.718-2.637 1.718-5.138 2.745-6.667l-.913-.614Zm-3.969 14.563c.089 1.788.433 3.774.846 5.294.206.756.437 1.422.674 1.897.116.233.251.456.41.62.143.147.444.382.837.268l-.308-1.057c.213-.062.32.084.261.023a1.517 1.517 0 0 1-.216-.345c-.19-.381-.398-.968-.596-1.695a25.396 25.396 0 0 1-.809-5.06l-1.099.055Zm2.768 8.078a.442.442 0 0 1-.306-.018l-.014-.007.008.006.023.019c.019.017.044.04.074.072.125.129.295.343.501.637.408.581.914 1.414 1.414 2.357l.972-.516a24.567 24.567 0 0 0-1.485-2.474 6.869 6.869 0 0 0-.608-.766 1.762 1.762 0 0 0-.296-.256c-.071-.047-.306-.194-.594-.109l.311 1.055Zm1.7 3.066 1.848 3.48.972-.516-1.848-3.48-.972.516Zm2.804 2.937-2.059-3.4-.941.57 2.059 3.4.941-.57Zm-2.059-3.4c-.572-.945-1.117-1.751-1.538-2.288a4.488 4.488 0 0 0-.57-.63.933.933 0 0 0-.385-.209.609.609 0 0 0-.724.437l1.061.292a.49.49 0 0 1-.219.284.489.489 0 0 1-.358.062c-.103-.024-.141-.072-.086-.026.079.067.218.217.415.469.383.489.903 1.255 1.463 2.179l.941-.57Zm-3.217-2.69c-.044.16-.03.318-.012.427.02.121.055.249.098.376.085.256.218.561.382.895.329.672.809 1.516 1.37 2.421 1.122 1.81 2.594 3.911 3.891 5.448l.841-.709c-1.253-1.486-2.695-3.54-3.797-5.319a28.358 28.358 0 0 1-1.317-2.325 6.66 6.66 0 0 1-.327-.76 1.446 1.446 0 0 1-.055-.203c-.008-.053.005-.025-.013.041l-1.061-.292Zm5.729 9.567c9.359 11.094 27.59 18.633 45.621 18.96l.02-1.101c-17.8-.322-35.695-7.776-44.8-18.568l-.841.709Zm45.621 18.96c3.242.058 7.498-.433 11.605-1.236 4.104-.804 8.106-1.929 10.831-3.159l-.453-1.003c-2.615 1.18-6.524 2.286-10.59 3.082-4.063.795-8.237 1.272-11.373 1.215l-.02 1.101Zm22.436-4.395c11.426-5.155 18.094-14.366 17.822-24.892l-1.1.028c.258 9.979-6.048 18.841-17.175 23.861l.453 1.003Zm17.822-24.892c-.36-13.899-11.62-25.823-31.102-33.454l-.401 1.025c19.321 7.568 30.06 19.219 30.403 32.457l1.1-.028Zm-31.102-33.454-3.153-1.235-.401 1.025 3.153 1.235.401-1.025Zm-2.809-.64.429-2.83-1.088-.165-.429 2.83 1.088.165Zm.429-2.83c.231-1.524 2.173-9.763 4.323-18.332l-1.067-.268c-2.143 8.539-4.103 16.845-4.344 18.434l1.088.166Zm4.323-18.332 3.905-15.553-1.067-.268-3.905 15.553 1.067.268Zm3.311-15.14 2.443.267.119-1.094-2.442-.267-.12 1.094Zm2.443.267c4.731.518 11.109.385 17.53-.358l-.126-1.093c-6.368.736-12.659.863-17.285.357l-.119 1.094Zm73.171-37.227c2.554-5.199 5.068-14.326 5.54-20.112l-1.096-.089c-.462 5.648-2.939 14.641-5.432 19.716l.988.485Zm5.54-20.112c.204-2.491.217-7.101.032-10.262l-1.099.064c.183 3.123.169 7.681-.029 10.109l1.096.089Zm.013-10.084c.254-.92.474-2.728.602-4.609.128-1.89.169-3.925.044-5.315l-1.096.099c.117 1.303.081 3.271-.046 5.141-.128 1.88-.344 3.589-.565 4.392l1.061.292Zm-52.45-54.308c8.232 2.411 20.725 7.546 31.42 15.097 10.713 7.562 19.508 17.465 20.58 29.386l1.096-.099c-1.116-12.409-10.242-22.563-21.041-30.186-10.816-7.636-23.425-12.817-31.746-15.254l-.309 1.056Zm32.713 103.121c5.895-5.318 10.737-11.597 14.184-18.617l-.988-.485c-3.381 6.886-8.135 13.055-13.933 18.285l.737.817Zm-41.457 18.252c14.528-1.679 27.846-7.234 38.346-15.612l-.686-.861c-10.333 8.245-23.455 13.723-37.786 15.38l.126 1.093Zm38.308-15.584c1.186-.791 2.264-1.688 3.188-2.707l-.815-.739c-.855.942-1.86 1.782-2.983 2.53l.61.916Z" fill="#000" mask="url(#b)"/><path d="M249.741 214.076c-.319 1.354-1.728 2.386-3.893 2.897-2.148.508-4.963.48-7.928-.22-2.966-.699-5.496-1.93-7.192-3.345-1.708-1.425-2.508-2.977-2.188-4.331.319-1.354 1.728-2.386 3.893-2.898 2.148-.508 4.963-.479 7.928.22 2.966.699 5.496 1.931 7.192 3.345 1.708 1.425 2.508 2.978 2.188 4.332Zm19.936 22.71c-.244 1.036-1.327 1.84-3.025 2.242-1.682.397-3.889.375-6.217-.174-2.329-.549-4.313-1.515-5.64-2.622-1.34-1.118-1.949-2.321-1.705-3.357.244-1.035 1.326-1.839 3.025-2.241 1.682-.397 3.889-.376 6.217.173 2.328.549 4.313 1.516 5.64 2.623 1.34 1.118 1.949 2.321 1.705 3.356Zm31.401-15.353c-.158.671-.868 1.216-2.033 1.491-1.149.272-2.663.258-4.264-.12-1.601-.377-2.961-1.041-3.868-1.797-.919-.767-1.311-1.571-1.153-2.243.159-.672.869-1.216 2.034-1.492 1.149-.271 2.663-.257 4.263.12 1.601.377 2.962 1.041 3.868 1.797.92.767 1.312 1.572 1.153 2.244Z" stroke="#000" stroke-width=".507"/><path d="M311.457 112.444v16.707m0-27.148v6.265m0 44.899v-16.706m0 27.148v-6.265m-20.362-24.538h16.707m-27.149 0h6.266m44.899 0h-16.707m27.149 0h-6.265M281.906 44.9v10.872m0-17.668v4.077m0 29.22V60.53m0 17.668V74.12m-13.251-15.97h10.873m-17.668 0h4.077m29.22 0h-10.872m17.668 0h-4.077m-105.553 9.642v23.444m0-38.097v8.792m0 63.006v-23.444m0 38.097v-8.791M163.75 96.365h23.444m-38.097 0h8.792m63.007 0h-23.445m38.097 0h-8.791" stroke="#FF7A8B" stroke-width="1.253"/></svg>