<svg width="968" height="664" viewBox="0 0 968 664" fill="none" xmlns="http://www.w3.org/2000/svg"><g clip-path="url(#a)"><path d="M661.31 36.967C472.353-50.853 250.543 25.62 165.885 207.774l27.272 12.675C287.116 63.072 481.38-3.169 644.688 72.731c163.309 75.899 237.922 267.104 178.2 440.393l27.272 12.675c84.658-182.154.107-401.012-188.85-488.832Z" fill="#FF7A8B"/><path d="M822.888 513.124c59.722-173.289-14.891-364.494-178.2-440.393-163.308-75.9-357.572-9.659-451.531 147.718l33.967 15.786C324.379 100.301 493.02 42.83 632.751 107.772c139.732 64.942 204.529 230.906 163.322 392.889l26.815 12.463Z" fill="#FE8E69"/><path d="M796.073 500.661c41.207-161.983-23.59-327.947-163.322-392.889-139.731-64.942-308.372-7.471-405.627 128.463l32.801 15.245c95.772-115.954 239.207-165.22 356.121-110.883 116.913 54.337 171.731 195.744 144.842 343.712l35.185 16.352Z" fill="#FFAB6A"/><path d="M760.888 484.309c26.889-147.968-27.929-289.375-144.842-343.712-116.914-54.337-260.349-5.071-356.121 110.883l25.209 11.716c91.565-95.468 213.582-134.607 312.673-88.553 99.091 46.053 147.841 164.558 133.899 296.103l29.182 13.563Z" fill="#FEC2B8"/><path d="M731.706 470.746c13.942-131.545-34.808-250.05-133.899-296.103-99.091-46.054-221.108-6.915-312.673 88.553l28.487 13.24c83.719-76.96 184.728-107.428 266.288-69.522 81.56 37.906 123.393 134.762 118.541 248.376l33.256 15.456Z" fill="#FFEEE6"/><path d="M698.45 455.29c4.852-113.614-36.981-210.47-118.541-248.376-81.56-37.906-182.569-7.438-266.288 69.522l35.156 16.339c71.985-57.887 151.174-79.534 214.908-49.913 63.734 29.621 98.242 104.111 100.404 196.458l34.361 15.97Z" fill="#fff"/><path d="M768.145 454.823c-24.208-92.43-122.788-57.067-127.903-9.674-88.323-24.137-117.094 80.394-28.048 109.215-14.608 70.524 73.397 78.085 94.541 56.503 8.419 68.179 91.771 62.463 107.469 28.687 108.786 74.719 161.358-95.579 54.852-118.02 10.688-71.862-65.043-101.26-100.911-66.711Z" fill="#FE8E69"/><path d="M762.044 447.156c-24.208-92.43-122.788-57.068-127.902-9.674-88.324-24.137-117.094 80.393-28.049 109.215-14.608 70.524 73.398 78.084 94.541 56.503 8.419 68.179 91.772 62.463 107.47 28.686 108.785 74.72 161.357-95.579 54.851-118.02 10.688-71.862-65.042-101.26-100.911-66.71Z" fill="#fff" stroke="#1B1B1B"/><path d="M254.333 216.023c-24.208-92.43-122.788-57.068-127.903-9.674-88.323-24.137-117.094 80.393-28.048 109.215-14.609 70.524 73.397 78.084 94.541 56.503 8.419 68.179 91.771 62.463 107.469 28.686 108.786 74.72 161.358-95.579 54.851-118.02 10.688-71.862-65.042-101.26-100.91-66.71Z" fill="#FF7A8B"/><path d="M248.232 208.356c-24.208-92.431-122.788-57.068-127.902-9.674-88.324-24.138-117.095 80.393-28.049 109.215-14.608 70.523 73.398 78.084 94.541 56.502 8.419 68.18 91.771 62.464 107.47 28.687 108.785 74.72 161.357-95.579 54.851-118.02 10.688-71.862-65.042-101.26-100.911-66.71Z" fill="#fff" stroke="#1B1B1B"/></g><defs><clipPath id="a"><path fill="#fff" d="M0 0h968v664H0z"/></clipPath></defs></svg>