<svg width="46" height="24" viewBox="0 0 46 24" fill="none" xmlns="http://www.w3.org/2000/svg">
<path fill-rule="evenodd" clip-rule="evenodd" d="M6.97981 11.0797C6.96582 10.598 7.57455 9.65146 8.33218 8.97627C10.2316 7.28399 12.7376 7.22545 14.4444 8.83365C15.1367 9.48554 15.6347 10.2454 15.5518 10.5216C15.3079 11.3296 13.8808 11.4463 13.858 10.6598C13.8359 9.89945 12.4707 9.04463 11.332 9.07769C10.9455 9.08891 9.94136 9.73732 9.10091 10.5186C7.31132 12.182 7.01409 12.2603 6.97981 11.0797ZM30.7305 11.3001C30.2944 10.8834 30.4959 10.4514 31.6282 9.37501C33.6183 7.48332 35.3553 7.48838 37.5613 9.39217C38.7284 10.4 39.195 11.1236 39.0121 11.6436C38.6073 12.7957 37.9069 12.5935 37.0679 11.0826C36.6544 10.3377 36.1316 9.73368 35.9062 9.74022C35.6809 9.74677 35.1957 9.64664 34.8276 9.51788C34.4596 9.38866 33.5136 9.85786 32.7256 10.5601C31.6093 11.5549 31.168 11.7181 30.7305 11.3001ZM21.4786 11.6344C20.8329 10.9118 20.4497 10.1647 20.6265 9.97383C21.0051 9.56605 25.6309 9.74227 26.098 10.1824C26.2742 10.3483 25.8796 11.0791 25.2214 11.806C24.2555 12.8734 24.0881 13.4017 24.3524 14.5472C24.8785 16.8295 26.2413 17.9032 28.0987 17.4993C29.3189 17.2341 29.6693 17.3111 29.6849 17.8482C29.7314 19.4482 26.1868 19.647 24.6732 18.1291L23.5963 17.0489L22.177 17.9704C20.494 19.0632 18.3052 19.2236 17.0399 18.3461C15.6809 17.4044 16.6855 16.4863 18.3224 17.1745C19.326 17.5963 19.7388 17.5444 20.701 16.8742C21.7379 16.152 22.6952 14.4283 22.6637 13.3412C22.6574 13.1249 22.1243 12.3564 21.4786 11.6344ZM1.50836 16.4417C2.19834 16.2684 2.967 16.0521 3.21698 15.9604C3.46698 15.8692 5.78782 15.7165 8.37493 15.6217C12.2661 15.4789 13.0818 15.5675 13.0983 16.1363C13.1093 16.5144 12.8865 16.8305 12.6033 16.8388C12.2582 16.8488 12.2935 17.0867 12.7092 17.5586C13.2241 18.1432 13.2201 18.3382 12.684 18.6992C12.328 18.9389 11.669 19.1484 11.2193 19.1656C10.7701 19.1823 9.15222 19.6572 7.62514 20.2208C5.60539 20.9662 4.70654 21.1125 4.32871 20.7565C3.6354 20.1032 4.46562 19.5548 7.65632 18.5581C12.1672 17.1487 12.2682 16.8155 8.07557 17.1766C5.93342 17.3609 3.30717 17.6743 2.23897 17.8732C0.631626 18.1721 0.29349 18.1072 0.275723 17.4953C0.263133 17.0618 0.773225 16.6259 1.50836 16.4417ZM37.3628 17.284C36.6106 17.1494 36.0842 16.7546 36.0715 16.3155C36.0534 15.6954 36.4075 15.6127 38.2386 15.8068C40.9148 16.091 44.713 17.1894 45.1123 17.7952C45.7125 18.7048 44.7715 18.8092 41.7428 18.1687C40.0322 17.8069 38.061 17.4091 37.3628 17.284ZM34.3348 18.6008C33.9688 18.3995 33.814 17.9852 33.9907 17.6801C34.1674 17.3754 34.5252 17.1196 34.7859 17.112C35.6639 17.0865 42.6451 21.2264 42.6612 21.7823C42.6945 22.9286 41.8569 22.7488 38.4798 20.8863L37.2347 20.1998L34.3348 18.6008Z" fill="#FF7A8B"/>
</svg>
